<svg xmlns="http://www.w3.org/2000/svg" viewBox="0 0 576.36 576.36"><title>music-logo-flat-title</title><circle cx="288.18" cy="288.18" r="287.92" style="fill:none;stroke:#f1f2f2;stroke-miterlimit:10;stroke-width:0.5153821423338742px"/><circle cx="288.18" cy="288.18" r="279.33" style="fill:none;stroke:#74cfe7;stroke-miterlimit:10;stroke-width:0.5px"/><path d="M402,296.53a39.48,39.48,0,0,0-10-1.28,40.24,40.24,0,0,0-5.84.45,95.59,95.59,0,0,1,40.1,120.46c.57-.18,1.15-.33,1.71-.54a64.78,64.78,0,0,0,9.1,17.53,112.67,112.67,0,0,0-28.62-143A66.45,66.45,0,0,0,402,296.53Z" transform="translate(-264.82 -115.05)" style="fill:#fff"/><path d="M362.61,308.42a38.58,38.58,0,0,0-3.95,5.19,24.44,24.44,0,0,0-15.92-.58,57.29,57.29,0,0,1,28,76.41A25.2,25.2,0,0,0,376,387a39.06,39.06,0,0,0,5.45,13,71.58,71.58,0,0,0-18.86-91.55Z" transform="translate(-264.82 -115.05)" style="fill:#fff"/><path d="M329.39,322.78a24.86,24.86,0,0,0-9.32,2.62,33.06,33.06,0,0,1,20.3,30.46,32.71,32.71,0,0,1-4.11,15.92,24.11,24.11,0,0,0,2.6-.66,24.87,24.87,0,0,0,5.87,11.39,45.83,45.83,0,0,0-11.21-64.37A25.32,25.32,0,0,0,329.39,322.78Z" transform="translate(-264.82 -115.05)" style="fill:#fff"/><path d="M539.51,482.52a179,179,0,0,0-65.8-217.37,104.47,104.47,0,0,0-7.14,11.34,64.65,64.65,0,0,0-16-2h-.07a159,159,0,0,1,69.92,201.67A64.2,64.2,0,0,0,539.51,482.52Z" transform="translate(-264.82 -115.05)" style="fill:#fff"/><path d="M500.13,286.56c-1.44-1.26-2.91-2.5-4.29-3.83a146.21,146.21,0,0,0-12.23-10.42c-2.94-2.28-5.92-4.5-9-6.56-.86-.57-.84-.6-.17-1.54A95.83,95.83,0,0,1,488,249.09a107.76,107.76,0,0,1,20.79-14.76,99,99,0,0,1,16.42-7.19,93.14,93.14,0,0,1,15.57-3.82A103.23,103.23,0,0,1,554.32,222c1.51,0,3-.47,4.55-.24,2.8.42,5.62.2,8.43.54s5.58.62,8.36,1.05a98.69,98.69,0,0,1,17.51,4.41,108.45,108.45,0,0,1,19.69,9.4,3.06,3.06,0,0,1,.47.48c-.47.56-1.12.46-1.73.48a108.54,108.54,0,0,0-30,5.22,98,98,0,0,0-28.2,14.56c-.72.53-1.43,1.09-2.19,1.59a5.46,5.46,0,0,1-.89.49l-.92.34a2.52,2.52,0,0,1-.47.13,94.2,94.2,0,0,0-18.78,6.35,102.84,102.84,0,0,0-23.57,14.63c-1.64,1.39-3.31,2.74-4.82,4.27C501.36,286.12,501,286.79,500.13,286.56Z" transform="translate(-264.82 -115.05)" style="fill:#d6e9bf"/><path d="M801.08,411.57a120.21,120.21,0,0,0-11.74-9.13,108.57,108.57,0,0,0-27.09-12.63A121.13,121.13,0,0,0,745,385.69c-.44-.07-.88-.21-1.31-.32a.78.78,0,0,1-.18-.46,4.57,4.57,0,0,1,1-1.76,62.66,62.66,0,0,0,6.86-13.29,3.47,3.47,0,0,1,.72-1.32c3.35-1.75,6.78-3.35,9.77-5.75a45.93,45.93,0,0,0,6.41-6.29,4.29,4.29,0,0,1,3.93-1.79,25.34,25.34,0,0,0,2.89,0c9.86.31,19.44,1.95,28.35,6.39,4.94,2.46,9.18,5.78,11.9,10.73a2.29,2.29,0,0,1,.27,1.06,65.76,65.76,0,0,1-2.85,17.83,60.72,60.72,0,0,1-10.09,19.63A2.61,2.61,0,0,1,801.08,411.57Z" transform="translate(-264.82 -115.05)" style="fill:#b7d2b6"/><path d="M609.55,417.65l-.11,0h-.13c-11.72,6.91-24.45,10.73-37.87,12.46a1.8,1.8,0,0,1-.52-.05,40.59,40.59,0,0,1-6.89-6,100.25,100.25,0,0,1-9.84-11.44c-.42-.59-1-1.14-.66-2,2.23-2,4.57-3.86,6.71-6a63.18,63.18,0,0,0,17.45-31.46,79.08,79.08,0,0,0,1.52-10.39,2.34,2.34,0,0,1,.35-1.29c.79-.46,1.43,0,2,.4,18.52,10.85,29.62,26.78,32.84,48.09a7.61,7.61,0,0,1,.21,2.69,4.38,4.38,0,0,1-1.88,2.27C611.65,415.84,610.64,416.79,609.55,417.65Z" transform="translate(-264.82 -115.05)" style="fill:#48b0b0"/><path d="M659.81,247.82l1,.37c5.27,1.89,9.75,5.16,14.31,8.28A92,92,0,0,1,689.82,269a96.54,96.54,0,0,1,10.42,12.67c.42.6,1.32,1.29.27,2.15a19.77,19.77,0,0,1-6-.27,46.64,46.64,0,0,0-10.44.34,58.7,58.7,0,0,0-15.6,3.67,7.13,7.13,0,0,1-1.63.43,9.83,9.83,0,0,1-3.58-.85c-3-.91-6-1.47-9-2.33a7.06,7.06,0,0,1-1.84-3A103.15,103.15,0,0,0,640.09,262a94.37,94.37,0,0,0-13.36-14.11c-.54-.45-1.49-.89-.61-1.87a13,13,0,0,1,4.66-.64,106.52,106.52,0,0,1,19.23.45,37.9,37.9,0,0,1,8.77,1.69h0C659.07,247.79,659.52,247.53,659.81,247.82Z" transform="translate(-264.82 -115.05)" style="fill:#65bfe6"/><path d="M436.62,322.93a130.13,130.13,0,0,0-9.49-14,109.21,109.21,0,0,0-17.44-17.74,3.72,3.72,0,0,1-1.14-1.16,49.8,49.8,0,0,1,6.7-5.11,62.4,62.4,0,0,1,22.32-9.08c3.2-.65,6.47-.93,9.73-1.26a9,9,0,0,1,5.87,1.49c3.34,2,6.65,4.08,9.9,6.24a4.15,4.15,0,0,1,.49.45,4.24,4.24,0,0,1-.62,2.25,101.39,101.39,0,0,0-8.16,32.85,2.68,2.68,0,0,1-.31,1.3,1.27,1.27,0,0,1-.47.32c-1.89.39-3.8.07-5.71.31A49.52,49.52,0,0,0,436.62,322.93Z" transform="translate(-264.82 -115.05)" style="fill:#96ce89"/><path d="M442.08,423.09a115.87,115.87,0,0,0,6.16-18.78,3.66,3.66,0,0,1,.27-.61,2.17,2.17,0,0,1,1.41-.46,81.14,81.14,0,0,0,15.84-1.82,1.57,1.57,0,0,1,.53,0,2.23,2.23,0,0,1,1.23.85c4.4,5.26,9.89,9.17,15.68,12.72.73.75,1.83.83,2.62,1.49a2.66,2.66,0,0,1,.16.5,22.46,22.46,0,0,1,.07,2.46,57.5,57.5,0,0,0,2.65,18.09,4.22,4.22,0,0,1,.28,1.65,1.48,1.48,0,0,1-.17.54,2.82,2.82,0,0,1-1.63.83q-23.76,6.39-41.13-11a32.19,32.19,0,0,1-3.36-4.25A2.4,2.4,0,0,1,442.08,423.09Z" transform="translate(-264.82 -115.05)" style="fill:#4194d0"/><path d="M579.66,361.6c-.22,2.68-.42,5.35-.87,8a73.2,73.2,0,0,1-1.86,8.2,62.35,62.35,0,0,1-5.74,13.48,64.3,64.3,0,0,1-7.44,10.4,46.2,46.2,0,0,1-6.4,6.26c-1,.79-1.86,1.8-3,2.52a1.81,1.81,0,0,1-.91.39c-.1.15-.19.16-.28,0-.23-3.61-.44-7.23-.68-10.84a172.19,172.19,0,0,0-3.26-23.15,166.91,166.91,0,0,0-5.89-21.4c-.11-.32-.17-.66-.25-1a1.78,1.78,0,0,1,1.39-.46,69.83,69.83,0,0,1,18.81,1.14A67.13,67.13,0,0,1,577.88,360a5.52,5.52,0,0,1,1.73,1A.44.44,0,0,1,579.66,361.6Z" transform="translate(-264.82 -115.05)" style="fill:#41afaf"/><path d="M579.66,361.26c-2-.84-4-1.71-6.08-2.53a59.55,59.55,0,0,0-13.32-3.62,40.73,40.73,0,0,0-7.55-.64c-1.07,0-2.1-.59-3.18-.32-2.12.54-4.27.23-6.4.32q-2.14-5.54-4.28-11.08a2.21,2.21,0,0,1,.25-1.79,102.86,102.86,0,0,1,19.57-28,3.41,3.41,0,0,1,1.32-1,1,1,0,0,1,.52.08,63.27,63.27,0,0,1,8.85,10.68,64.75,64.75,0,0,1,9.79,24.57,54.69,54.69,0,0,1,1,11.64C580.07,360.13,580.18,360.78,579.66,361.26Z" transform="translate(-264.82 -115.05)" style="fill:#3ab2bc"/><path d="M737.25,384.37a53.76,53.76,0,0,1-6.7-.58c-.23,0-.45-.06-.67-.07a175.48,175.48,0,0,0-17.91-.31c-3.25.08-6.48.62-9.72.86-2.41.17-4.81.43-7.21.76-2,.28-4,.54-6,.87a13.53,13.53,0,0,1-2,.18c-.44.19-.95.13-.59-.4a2.82,2.82,0,0,0,.15-2.43c-.55-2.88-.7-5.82-1.06-8.73a3.3,3.3,0,0,0-.53-1.75c-.28-1.36,1-1,1.58-1.45a4.58,4.58,0,0,1,.46-.2l.94-.41A274.81,274.81,0,0,1,732.36,358c.94-.19,1.89-.32,2.83-.5a6.87,6.87,0,0,0,1.28-.23,2.91,2.91,0,0,1,.51-.12c1.63-.2,3.24-.61,4.88-.75.33,0,.66,0,1,0,.83-.1,1.68.5,2.49-.07a2.13,2.13,0,0,1,.49-.15c1.2,0,1.25.65,1,1.58-.43,1.41-1.27,2.63-1.82,4a49.26,49.26,0,0,0-2.39,7.57c-.14.6-.17,1.25-.72,1.67a2.53,2.53,0,0,0-1.4,1.79C739.66,376.73,738.31,380.51,737.25,384.37Z" transform="translate(-264.82 -115.05)" style="fill:#a8d2df"/><path d="M523.54,359.93a121.25,121.25,0,0,1,4.79,15.72,162,162,0,0,1,3.86,22.87c.47,4.85.66,9.7.86,14.56a69.71,69.71,0,0,1-.31,8.3,2.14,2.14,0,0,1-1.26.81,55,55,0,0,1-10.36,1.68,28.2,28.2,0,0,1-10.18-4.57c-.08-1,.55-1.82.86-2.71,5.06-14.57,3-27.9-6.86-39.9a4.5,4.5,0,0,1-.89-1.23c-.21-1.55,1.17-2.4,1.63-3.65a16.57,16.57,0,0,1,1.49-1.64,58,58,0,0,1,15.08-10A1.51,1.51,0,0,1,523.54,359.93Z" transform="translate(-264.82 -115.05)" style="fill:#5ba5a2"/><path d="M388.2,347c-.64-2.27-1.31-4.54-2.15-6.75-1.26-6.3.16-12.38,1.71-18.39a61,61,0,0,1,7.63-17.33c.37-.59.59-1.42,1.56-1.34a86.22,86.22,0,0,1,12.53,11.63,95.69,95.69,0,0,1,9.81,13,85.29,85.29,0,0,1,6.82,13.06,1.78,1.78,0,0,1-1.48,0c-11.48-2.72-22.23-1.15-32.12,5.45-.15.09-.31.17-.47.25s-.61.27-.93.39a2.77,2.77,0,0,1-.48.11A7.08,7.08,0,0,1,388.2,347Z" transform="translate(-264.82 -115.05)" style="fill:#cbdf84"/><path d="M507.31,370.43A3.7,3.7,0,0,1,506,371.8c-.82,1-1.35,2.27-2.8,2.57-1.16-.31-1.74-1.36-2.6-2.06a45.9,45.9,0,0,0-8-5.19,2.08,2.08,0,0,1-1-.8,1.49,1.49,0,0,1-.14-.51A40.52,40.52,0,0,0,490.2,347a38.73,38.73,0,0,0-7.44-13.6c-.61-.72-1.65-1.31-1.15-2.56a23.06,23.06,0,0,1,8.84-.91,69.45,69.45,0,0,1,12.91,1.58c2,.47,4,1.05,6,1.66a5.23,5.23,0,0,1,2.19,1.23,44.52,44.52,0,0,1,3.54,6.46c.73,1.66.19,3.36,0,5A65,65,0,0,1,508.87,368C508.44,368.91,507.71,369.56,507.31,370.43Z" transform="translate(-264.82 -115.05)" style="fill:#30b2af"/><path d="M442.08,423.09a5.13,5.13,0,0,0,1.27,2.36,39.89,39.89,0,0,0,44.8,14.34c.16-.05.33-.07.5-.11.76,0,.86.63,1.05,1.13a67.56,67.56,0,0,0,8.88,16.47c.31.42.86.81.54,1.48a10.42,10.42,0,0,1-3.66.57,61.72,61.72,0,0,1-14.18-.15,63.47,63.47,0,0,1-22.64-7.13A66.9,66.9,0,0,1,445.79,443a75.16,75.16,0,0,1-8.23-9,1,1,0,0,1-.17-1.34C439.14,429.57,440.63,426.34,442.08,423.09Z" transform="translate(-264.82 -115.05)" style="fill:#85d4f2"/><path d="M770.53,309.68l.36.32a4.42,4.42,0,0,1,1.61,1.71,37.28,37.28,0,0,1,5.28,18.56c0,2.69.4,5.44-.54,8.08a1,1,0,0,1-.38.38,50.37,50.37,0,0,0-12.2,3.86,39.26,39.26,0,0,0-7.5,4.85c-.46.39-.84,1.13-1.67.81a2.82,2.82,0,0,1-.35-1.8,62.35,62.35,0,0,0-12.3-36.9c-.51-.7-1.52-1.37-.71-2.49,2.9-1,6-.91,8.89-.86a65.81,65.81,0,0,1,17.23,2.42A5.82,5.82,0,0,1,770.53,309.68Z" transform="translate(-264.82 -115.05)" style="fill:#66c185"/><path d="M550.8,259.38A99.94,99.94,0,0,1,598,239c3.07-.44,6.13-.79,9.21-1.06,2-.18,4-.17,6.08-.3l.61.05c4.1,2,7.58,5,11.13,7.77.35.28.85.68.29,1.25-4,1-8,1.35-12,2.34a102.43,102.43,0,0,0-24.79,9.58,2.23,2.23,0,0,1-.56.16,4.08,4.08,0,0,1-.61,0,148.48,148.48,0,0,0-15.35-1,111.26,111.26,0,0,0-18.68,1.76C552.53,259.71,551.62,260.08,550.8,259.38Z" transform="translate(-264.82 -115.05)" style="fill:#b7ddb8"/><path d="M776.65,338.52l.36,0a3.19,3.19,0,0,1,2.19-.74c12.33-.5,22.93,3.41,31.57,12.34a9.26,9.26,0,0,1,1.47,2.05l.45.9c1.58,2.88,1.87,6.09,2.4,9.24.44,2.67.37,5.38.7,8.06.09.66.27,1.51-.73,1.8a36.45,36.45,0,0,0-3.45-4.59A34.54,34.54,0,0,0,799,359.59a66.45,66.45,0,0,0-15.72-3.8,51.77,51.77,0,0,0-8.25-.66,20,20,0,0,0-5.62.05,12.6,12.6,0,0,1-5-.08c-.8-.8,0-.9.5-1a12.69,12.69,0,0,1,3.2-.08,3.27,3.27,0,0,0,3.27-1.89,39,39,0,0,0,4.75-12.22A2.6,2.6,0,0,1,776.65,338.52Z" transform="translate(-264.82 -115.05)" style="fill:#5aac59"/><path d="M550.08,447.83c.35-2.21.72-4.41,1-6.63.5-3.66.94-7.32,1.41-11a38.24,38.24,0,0,1,6.42-.1,2.54,2.54,0,0,1,.55.1c2,.86,3.79,2.18,5.74,3.2a118.76,118.76,0,0,0,16.26,7c.56.19,1.26.21,1.5.94-1.66,2.05-3.33,4.1-5,6.17a109.59,109.59,0,0,0-11.13,17.3c-.18.35-.39.69-.59,1a.76.76,0,0,1-.7.13,6.74,6.74,0,0,1-2.13-1.38A124,124,0,0,1,550.81,451,3.26,3.26,0,0,1,550.08,447.83Z" transform="translate(-264.82 -115.05)" style="fill:#a6b586"/><path d="M397,303.15a18,18,0,0,0-2.83,4.36,64.39,64.39,0,0,0-6.5,16.64,59,59,0,0,0-1.57,16.06,75.77,75.77,0,0,0-4-8.74,70,70,0,0,0-8.31-12.31c-2.28-2.75-4.9-5.16-7.42-7.67a23.69,23.69,0,0,0-3-2.49c-.73-.51-.7-.88-.12-1.45a47.1,47.1,0,0,1,8-6.46,40.2,40.2,0,0,1,9.89-4.34c1.29-.38,2.62-.65,3.93-1a2.12,2.12,0,0,1,1.63.26A83.43,83.43,0,0,1,397,303.15Z" transform="translate(-264.82 -115.05)" style="fill:#d6e9bf"/><path d="M532.41,426.82a58.62,58.62,0,0,1-.72,7.71c-.41,3.34-1.06,6.65-1.62,10a7,7,0,0,1-.31.95c-.83,1.42-2.26,2.18-3.54,3.06-1.89,1.29-3.68,2.79-6,3.42-1.42-.13-2.48-1.06-3.6-1.79a92,92,0,0,1-15.13-11.68c-1.2-1.19-2.57-2.21-3.77-3.41a.66.66,0,0,1,0-.48,43,43,0,0,0,10.54-10.9,1.31,1.31,0,0,1,.66-.52,2,2,0,0,1,.55-.07,47.76,47.76,0,0,0,6.55.14,30.93,30.93,0,0,1,4.51.36,10.71,10.71,0,0,1,3.62.73C526.87,425.31,529.64,426.05,532.41,426.82Z" transform="translate(-264.82 -115.05)" style="fill:#74afab"/><path d="M454.3,319.13a80.51,80.51,0,0,1,2.14-15.68,100.89,100.89,0,0,1,4.75-15.5,28.76,28.76,0,0,1,2.37-5.21,101.15,101.15,0,0,1,9.3,6.76,157.58,157.58,0,0,1,12.21,10.74,4.62,4.62,0,0,1,1.12,1.25,7,7,0,0,1-2.5,1.68,64.19,64.19,0,0,0-15,11.51c-1.42,1.45-2.71,3-4,4.6-.41.52-.71,1.17-1.39,1.44a2,2,0,0,1-.54,0,43.27,43.27,0,0,0-7-1.13C455.3,319.56,454.71,319.62,454.3,319.13Z" transform="translate(-264.82 -115.05)" style="fill:#74bf55"/><path d="M500.13,286.56a6.82,6.82,0,0,0,1.64-1.44,98.83,98.83,0,0,1,9.88-8.16,106.78,106.78,0,0,1,18.43-10.61,85.84,85.84,0,0,1,14.59-5.27c1.57-.41,3.08-1.13,4.76-1,.19.78-.41,1.11-.87,1.5a106.67,106.67,0,0,0-20.11,22.1,75,75,0,0,0-5.69,9.62,2.74,2.74,0,0,1-2.71,1.9c-3.93.14-7.86-.15-11.78.23Z" transform="translate(-264.82 -115.05)" style="fill:#a8dac6"/><path d="M433.18,366.72a93.87,93.87,0,0,1-1.62,33,6.28,6.28,0,0,1-.33,1c-.52.47-1.05.2-1.59,0a64.54,64.54,0,0,1-18.74-10c-.57-.44-1.24-.83-1.26-1.69a5.47,5.47,0,0,1,1.34-2.13,24.28,24.28,0,0,0,5.33-19.33,3.49,3.49,0,0,1,0-1,1.39,1.39,0,0,1,.2-.51,1.35,1.35,0,0,1,.41-.38,3.13,3.13,0,0,1,.78-.38,25,25,0,0,1,13.93.33C432.24,365.79,432.9,366,433.18,366.72Z" transform="translate(-264.82 -115.05)" style="fill:#3e90c0"/><path d="M449.63,398c.28-2.8.77-5.56,1-8.36a118.22,118.22,0,0,0,.54-14.33c0-.56,0-1.12,0-1.68a3.58,3.58,0,0,1,1.83-4.39,46.36,46.36,0,0,1,8.39-4.28,26.35,26.35,0,0,1,4.57-1.52,2.5,2.5,0,0,1,2.38.27,12.67,12.67,0,0,1,.64,4,95.71,95.71,0,0,0,3.73,22.47,6.29,6.29,0,0,1,.39,2.15c-.21,1-1,1.29-1.76,1.7a45.37,45.37,0,0,1-8.87,3.4A36,36,0,0,1,451,398.43,2,2,0,0,1,449.63,398Z" transform="translate(-264.82 -115.05)" style="fill:#41b29b"/><path d="M812.24,352.12c-.88-.87-1.78-1.73-2.65-2.61A38.64,38.64,0,0,0,789.1,338.8a47.4,47.4,0,0,0-10.09-.6,17.14,17.14,0,0,0-2,.27,54.24,54.24,0,0,0,.33-8.06,36.58,36.58,0,0,0-2.64-13.11,37.53,37.53,0,0,0-3.81-7.3,59.31,59.31,0,0,1,16.48,8.18,64.68,64.68,0,0,1,20.81,23.74A44.78,44.78,0,0,1,812.24,352.12Z" transform="translate(-264.82 -115.05)" style="fill:#96ce89"/><path d="M511.59,334.42a69.3,69.3,0,0,0-10.71-2.86,39.34,39.34,0,0,0-7.49-.85c-1.2,0-2.32-.42-3.51-.35-2.8.15-5.59.35-8.37.69a.61.61,0,0,1-.67.12c-1.82-2.08-4.22-3.51-6.22-5.39a1.34,1.34,0,0,1-.15-.48,31.2,31.2,0,0,1,2.45-6.29,95.14,95.14,0,0,1,8.56-15.38c.39-.56.61-1.6,1.74-1.11a86.24,86.24,0,0,1,7.27,7.78,161.55,161.55,0,0,1,16.56,23.08C511.25,333.71,511.41,334.07,511.59,334.42Z" transform="translate(-264.82 -115.05)" style="fill:#50b675"/><path d="M534.83,334.76c-1.24-2.27-2.47-4.55-3.71-6.81a179,179,0,0,0-13.93-21.56,5.73,5.73,0,0,1-.41-.73,1.77,1.77,0,0,1,0-1.46,67.2,67.2,0,0,1,4-8.85,1.25,1.25,0,0,1,.49-.45,4.27,4.27,0,0,1,2.15-.29,68.82,68.82,0,0,1,21.37,6.64,2.14,2.14,0,0,1,.54.41,1,1,0,0,1,.2.51,4.55,4.55,0,0,1-.75,2,104,104,0,0,0-9.18,28.39C535.5,333.37,535.51,334.19,534.83,334.76Z" transform="translate(-264.82 -115.05)" style="fill:#52bebe"/><path d="M375.51,357.18a55.64,55.64,0,0,1-1,21.35c-.07.27-.2.52-.29.78-1.29,2-3.43,2.7-5.51,3.35a15.61,15.61,0,0,1-18.1-7.76,3.65,3.65,0,0,1-.56-1.75c.67-2.5,1.7-4.89,2.16-7.44.27-1.49.57-3,.85-4.45,1.26-.7,2.71-.7,4.05-1.13a23.72,23.72,0,0,0,9.75-5.91,4.94,4.94,0,0,1,1.71-1.36,1.7,1.7,0,0,1,.5-.09C371.79,353.41,374.17,354.55,375.51,357.18Z" transform="translate(-264.82 -115.05)" style="fill:#4194d0"/><path d="M390.82,346.67a1.55,1.55,0,0,1,.31,0c.21-.16.51-.1.71-.3h0a7.1,7.1,0,0,1,4.16,0c10.44,1.95,17.31,8,20.53,18.16a1.86,1.86,0,0,1,.1,1.48l0,0a50.85,50.85,0,0,1-9.9,5.85,29.06,29.06,0,0,1-9.7,2.37,2.18,2.18,0,0,1-1.82-1.08,42.05,42.05,0,0,1-4.31-8.25c-.47-1.19,0-2.47-.38-3.67a123.05,123.05,0,0,0-1.78-12.53C388.83,347.45,390,347.26,390.82,346.67Z" transform="translate(-264.82 -115.05)" style="fill:#39b8c7"/><path d="M700.9,283.49a50.2,50.2,0,0,0-4.58-6.45c-1.4-1.84-3-3.53-4.5-5.25s-2.93-3.28-4.53-4.79a101.71,101.71,0,0,0-11.11-9.3,107.08,107.08,0,0,0-14.66-9,4.63,4.63,0,0,1-.68-.48,38.33,38.33,0,0,1,6.08,1.42,102.79,102.79,0,0,1,25.35,11.1A107.29,107.29,0,0,1,716,280.48a99.21,99.21,0,0,1,8.53,10.95,6.92,6.92,0,0,1,.46.9c-.45.35-.87.1-1.24-.12a66.41,66.41,0,0,0-21.57-8,5.53,5.53,0,0,1-1.13-.53Z" transform="translate(-264.82 -115.05)" style="fill:#74c6e9"/><path d="M351.75,343.61c-.91-2.24-1.6-4.56-2.62-6.77a47.37,47.37,0,0,0-6.69-10.54,46.87,46.87,0,0,0-7.88-7.41c-1-.75-1-.85-.1-1.58a24.12,24.12,0,0,1,7.41-4,2.11,2.11,0,0,1,1.76.24,55.2,55.2,0,0,1,12.56,8.25,58.55,58.55,0,0,1,13.66,17.33,13,13,0,0,1,1.31,3.1c-.6.57-1.28.28-1.92.13a24.89,24.89,0,0,0-15.73,1.12C353,343.69,352.37,344,351.75,343.61Z" transform="translate(-264.82 -115.05)" style="fill:#5dc7f2"/><path d="M416.63,366c-.35-1-.69-2-1.06-3a24.4,24.4,0,0,0-11.76-13.57,21.51,21.51,0,0,0-9.81-2.77,13.07,13.07,0,0,0-2.16-.31,33.43,33.43,0,0,1,8.71-4.77c5.9-2.4,12.08-2.73,18.31-2.31a26.84,26.84,0,0,1,7.25,1.55,43.31,43.31,0,0,1,2.79,7.47,2.69,2.69,0,0,1-.16,2,38.27,38.27,0,0,1-11.51,15.35,3.51,3.51,0,0,1-.27.4Z" transform="translate(-264.82 -115.05)" style="fill:#6bc6b5"/><path d="M409.83,389.1c.27.61.85.86,1.34,1.23a62,62,0,0,0,14.06,8.21,44.54,44.54,0,0,0,6,2.12,64.18,64.18,0,0,1-2.88,10.09c-.37,1.07-.81,2.11-1.21,3.17a2,2,0,0,1-1.77,1.1c-12.49.63-23.55-8-26-19.63a1,1,0,0,1,.12-.49,19.68,19.68,0,0,1,3.52-1.62c2.34-1.09,4.21-2.84,6.32-4.25A.53.53,0,0,1,409.83,389.1Z" transform="translate(-264.82 -115.05)" style="fill:#4194d0"/><path d="M534.83,334.76a111.19,111.19,0,0,1,7.67-26.82c.84-2,1.9-3.84,2.86-5.76.68-.29,1.21.13,1.72.42a58.21,58.21,0,0,1,11.81,8.63A2.74,2.74,0,0,1,560,312.7c-.29.34-.55.71-.87,1a92.72,92.72,0,0,0-8.16,9.43A106,106,0,0,0,539.38,342a4,4,0,0,0-.53,1.41C537.41,340.55,536.09,337.67,534.83,334.76Z" transform="translate(-264.82 -115.05)" style="fill:#36b1d5"/><path d="M399.66,395.21A29.08,29.08,0,0,0,403,403a24.5,24.5,0,0,0,7.83,7.83,25,25,0,0,0,14.33,3.8,3,3,0,0,0,2-.67,5.79,5.79,0,0,1-.69,1.71,1.7,1.7,0,0,1-1.27,1,40.75,40.75,0,0,1-15.43,1.11,38.8,38.8,0,0,1-16.15-5.68,39.82,39.82,0,0,1-11.49-10.87,1.63,1.63,0,0,1-.19-2,51.14,51.14,0,0,0,2.37-4.67c1.36.13,2.63.66,4,.91a24.07,24.07,0,0,0,9.11-.24C398.12,395,398.9,394.68,399.66,395.21Z" transform="translate(-264.82 -115.05)" style="fill:#85d4f2"/><path d="M309,336.15c1.24-1.61,2.26-3.36,3.56-4.93a26.81,26.81,0,0,1,6.65-5.41,1.75,1.75,0,0,1,1.78,0,37.06,37.06,0,0,1,7.42,4.7,32.16,32.16,0,0,1,6.68,7.58,30.87,30.87,0,0,1,4.43,10.56c-1.11.13-1.91-.63-2.78-1.08a28.72,28.72,0,0,0-21.24-2.18,34.14,34.14,0,0,0-6.84,2.93c-.73.22-1.28,1.19-2.23.55a4,4,0,0,1-.3-1.94,22,22,0,0,1,1.88-9.32C308.22,337.09,308.38,336.47,309,336.15Z" transform="translate(-264.82 -115.05)" style="fill:#d6e9bf"/><path d="M497.81,435a1,1,0,0,1,.77.29c1.11,1.28,2.55,2.2,3.76,3.38a72,72,0,0,0,9,7.38c2.44,1.71,4.9,3.38,7.43,5a3.49,3.49,0,0,0,1.53.66.44.44,0,0,1-.08.5,53.88,53.88,0,0,1-17,6.41c-1.23.27-2.48.89-3.79.31l-.3-.09a73.44,73.44,0,0,1-7.95-13.24c-.65-1.43-1.25-2.88-1.78-4.36a3.4,3.4,0,0,0-.74-1.48c0-.1,0-.2,0-.3C491.78,438,494.59,436.08,497.81,435Z" transform="translate(-264.82 -115.05)" style="fill:#7fb2ad"/><path d="M565.73,465.85l.58,0a99.75,99.75,0,0,0-6.26,15.91,1.33,1.33,0,0,1-1.27,1.1,55.62,55.62,0,0,1-13.52.37c-1.46-.17-2.92-.27-4.38-.43-1.25-.13-1.35-.27-.85-1.48q2.28-5.47,4.14-11.12c.81-2.47,1.55-5,2.32-7.44a2.3,2.3,0,0,1,2.12-.1,99.05,99.05,0,0,0,14.73,2.34A10.83,10.83,0,0,1,565.73,465.85Z" transform="translate(-264.82 -115.05)" style="fill:#f6b671"/><path d="M770.53,309.68c-2.08-.49-4.15-1-6.24-1.48a49.27,49.27,0,0,0-10.19-1.29c-1.47,0-2.9-.5-4.37-.27-2.56.41-5.18.21-7.73.67a.57.57,0,0,1-.46,0c-1.75-1.29-2.91-3.14-4.43-4.65a67,67,0,0,0-9.87-8.24,1.28,1.28,0,0,1-.58-.59,2,2,0,0,0,.08-.22c1.68.14,3.22-.54,4.82-.8a39.16,39.16,0,0,1,21.74,2.58,38.43,38.43,0,0,1,12.82,8.71A23.45,23.45,0,0,1,770.53,309.68Z" transform="translate(-264.82 -115.05)" style="fill:#73d0f2"/><path d="M499.42,458.85a64.37,64.37,0,0,0,19.38-6.33,4.17,4.17,0,0,1,1.39-.59,2.2,2.2,0,0,1,1.72.42c1.49.86,3,1.69,4.55,2.44.39.2.79.42.91.9a56.55,56.55,0,0,1-2,7.15c-1.32,4.15-2.85,8.21-4.52,12.22-.48,1.16-.57,1.21-1.58.65a65.69,65.69,0,0,1-19.62-16.41A2.35,2.35,0,0,1,499.42,458.85Z" transform="translate(-264.82 -115.05)" style="fill:#f6b671"/><path d="M436.62,322.93c1.12-1.34,2.8-1.53,4.31-2.05a35.87,35.87,0,0,1,7.68-1.64,53.51,53.51,0,0,1,5.38-.09,2.42,2.42,0,0,1,.52,1.73c0,5.06,0,10.11.29,15.15a21.64,21.64,0,0,1-1.46,5.38,3,3,0,0,1-.47.63c-1.57,1.26-3.28,2.35-4.76,3.72a1.6,1.6,0,0,1-1.5.58,143.77,143.77,0,0,0-5.16-13.74C440,329.31,438.26,326.14,436.62,322.93Z" transform="translate(-264.82 -115.05)" style="fill:#8dc758"/><path d="M308.33,348.07c10.51-5.91,20.9-5.65,31.17.62a24.31,24.31,0,0,1,.69,6.8c-.3.08-.47-.1-.63-.32-1.16-2.52-2.85-4.32-5.88-4.35a6.32,6.32,0,0,0-6.62,6.42,9.77,9.77,0,0,1,0,1.53.69.69,0,0,1-.36.37c-2.71.52-5.28-.26-7.83-1a24.93,24.93,0,0,1-6.86-3.29,4.6,4.6,0,0,1-1.61-1.67,26.7,26.7,0,0,1-2-3.64C308.23,349.11,307.81,348.61,308.33,348.07Z" transform="translate(-264.82 -115.05)" style="fill:#37bada"/><path d="M674.76,388.74c-6,1.54-12,3.09-17.84,5.14l-7.63,2.71c-1.09.07-1.71-.77-2.39-1.37-1.09-1-2.13-2-3.15-3.06a.66.66,0,0,1,.1-.47,87.66,87.66,0,0,1,8.53-4.87c7.26-3.79,14.58-7.46,22.12-10.69a3.79,3.79,0,0,1,1.62-.46.63.63,0,0,1,.42.26,97.78,97.78,0,0,1-1.86,10.2,3.12,3.12,0,0,0-.15,1.81,2.07,2.07,0,0,1,.28.38A.38.38,0,0,1,674.76,388.74Z" transform="translate(-264.82 -115.05)" style="fill:#a9d3e3"/><path d="M310.7,353.11c.63.27.66,1.11,1.31,1.36a33.92,33.92,0,0,1,3.39,3.06c5,4.37,10.87,6.07,17.38,6a11.67,11.67,0,0,0,3.61-.59c1.05-.06,2-.84,3.12-.32a29,29,0,0,1-2.81,8.3,2.06,2.06,0,0,1-1.7,1.23,24.67,24.67,0,0,1-18.14-4.38,24.31,24.31,0,0,1-6.24-6.39c-.33-.49-.5-1.2-1.32-1.14a45.6,45.6,0,0,1-3.25-10.12.77.77,0,0,1,.37-.87c1.33,0,1.85,1.18,2.65,1.92A23.7,23.7,0,0,1,310.7,353.11Z" transform="translate(-264.82 -115.05)" style="fill:#85d4f2"/><path d="M399.66,395.21a35.58,35.58,0,0,1-8.34,1,31.33,31.33,0,0,1-6.3-1.07,1.18,1.18,0,0,1-.73-.67,76.88,76.88,0,0,0,5-15.89c.28-1.48.55-3,.82-4.45,1.87-.84,3.78-.54,5.7-.26a2.41,2.41,0,0,1,1.28.78c1.16,1.67,2.43,3.26,3.6,4.93a2.21,2.21,0,0,1,.41,1.27,49.79,49.79,0,0,0-1.4,7.4c-.09,1.7.2,3.34.22,5,0,.56.18,1.12-.21,1.61C399.66,395,399.66,395.1,399.66,395.21Z" transform="translate(-264.82 -115.05)" style="fill:#3cbbec"/><path d="M306.29,350.08a1.79,1.79,0,0,1,.61,1.33,22.16,22.16,0,0,0,2.23,7.14c.27.54.66,1.06.17,1.68a15.23,15.23,0,0,1-24.24-8,15.67,15.67,0,0,1,.16-8.51c.55-.29,1,0,1.38.32a31.29,31.29,0,0,0,6.3,3.44,1.06,1.06,0,0,1,.33.37c.25.61.15,1.3.4,1.91.9,2.78,2.7,4.58,5.68,4.84,2.78.24,4.74-1.15,6.13-3.47C305.67,350.71,305.83,350.27,306.29,350.08Z" transform="translate(-264.82 -115.05)" style="fill:#32aadd"/><path d="M350.06,373.15a3.38,3.38,0,0,1,.78,1.28,14.86,14.86,0,0,0,12.28,8.28,15.26,15.26,0,0,0,11.11-3.4,44.59,44.59,0,0,1-3.37,9.72,1.68,1.68,0,0,1-1.35.88,26.12,26.12,0,0,1-9.37.68,24.6,24.6,0,0,1-12.46-5.22c-.8-.62-1.51-1.36-2.26-2a1,1,0,0,1-.18-1.48A65.26,65.26,0,0,0,350.06,373.15Z" transform="translate(-264.82 -115.05)" style="fill:#85d4f2"/><path d="M351.75,343.61c1.71-.52,3.31-1.34,5.06-1.75a31.86,31.86,0,0,1,4.12-.67,26.41,26.41,0,0,1,9.73,1,2.09,2.09,0,0,0,.5,0,12.91,12.91,0,0,1,1.7,4.44,16.22,16.22,0,0,1-3.78,6.42h-.35c-1.64,0-3.26-.2-4.9-.22a13.64,13.64,0,0,0-8.21,2.78,3.48,3.48,0,0,0-1.74,2.93c0,.5.1,1.2-.72,1.31,0-1.86,0-3.72,0-5.58a40,40,0,0,0-1.24-9.37A4.38,4.38,0,0,1,351.75,343.61Z" transform="translate(-264.82 -115.05)" style="fill:#3cbbec"/><path d="M571.16,429.87c1-.61,2.21-.45,3.29-.6a106.64,106.64,0,0,0,20.37-5.2,101.67,101.67,0,0,0,12.46-5.62,3.92,3.92,0,0,1,2-.77,3.86,3.86,0,0,1-1.22,1.16A151.71,151.71,0,0,0,585.28,439a4.47,4.47,0,0,1-.52.44c-.59.34-1.09,0-1.57-.28A85,85,0,0,1,571.75,431C571.42,430.7,571,430.44,571.16,429.87Z" transform="translate(-264.82 -115.05)" style="fill:#4dafb5"/><path d="M293,347.71a19.9,19.9,0,0,1-6.3-3.18,3.7,3.7,0,0,0-1.44-.85,15.43,15.43,0,0,1,6.36-8.28,15.13,15.13,0,0,1,17.4.75c-.46,1.31-1,2.61-1.38,3.93a20.25,20.25,0,0,0-1.06,6.91c-.78-.07-.7-.8-.93-1.25a6.35,6.35,0,0,0-11.81.56C293.6,346.83,293.53,347.42,293,347.71Z" transform="translate(-264.82 -115.05)" style="fill:#ceebf6"/><path d="M701.93,283.82a63.45,63.45,0,0,1,19,6.27c1.39.71,2.66,1.65,4.12,2.24l1.08,1c.09.14.18.27.26.41.13.31.29.62-.1.86a36.09,36.09,0,0,0-13.3,7.22c-.54.45-1,1.16-1.88.81-1.9-3.72-3.46-7.6-5.62-11.2-1.16-1.94-2.28-3.9-3.51-5.8-.35-.55-.91-1-.72-1.82A.62.62,0,0,1,701.93,283.82Z" transform="translate(-264.82 -115.05)" style="fill:#3dafde"/><path d="M487.22,302.52c-.53,0-.75.37-1,.76a97.91,97.91,0,0,0-9.28,16.84c-.8,1.81-1.57,3.61-2.21,5.47-.63.23-1.09-.18-1.54-.47a36.88,36.88,0,0,0-8.26-3.76,2.17,2.17,0,0,1-1.4-.86,8.22,8.22,0,0,1,1.7-2.49,63.05,63.05,0,0,1,18.14-15.08,9.75,9.75,0,0,1,2.84-1.44A2.33,2.33,0,0,1,487.22,302.52Z" transform="translate(-264.82 -115.05)" style="fill:#53b772"/><path d="M625.52,246.38a84.17,84.17,0,0,0-8.87-6.74,11.48,11.48,0,0,1-2.71-2,66.41,66.41,0,0,1,10.46.37,107,107,0,0,1,26.88,6.11c2.16.81,4.27,1.75,6.4,2.64.4.18.86.3,1.1.74-1.93.05-3.78-.56-5.68-.78a99,99,0,0,0-10.59-1c-1.35,0-2.74-.28-4-.19-2.82.18-5.65,0-8.45.37-.73.09-1.45.15-2.19.18a4.21,4.21,0,0,0-2,.33C625.71,246.57,625.6,246.54,625.52,246.38Z" transform="translate(-264.82 -115.05)" style="fill:#ceebf6"/><path d="M452.63,341.9l.34-.39c.53-.6,1-1.39,2-1.05.73.77.63,1.79.79,2.71a102.24,102.24,0,0,0,5.51,20.26c.24.6.69,1.21.21,1.91a51.65,51.65,0,0,0-8.31,4.33,3.74,3.74,0,0,0-1.91,3.91,1.78,1.78,0,0,1-.17-.47c-.18-2.67-.34-5.34-.51-8a55.49,55.49,0,0,1,1-20.74A6.72,6.72,0,0,1,452.63,341.9Z" transform="translate(-264.82 -115.05)" style="fill:#43b69e"/><path d="M815.06,372.12a3.21,3.21,0,0,0,.16-2.59,7.37,7.37,0,0,1-.19-1.32A51.47,51.47,0,0,0,813.1,355c-.17-.64-.28-1.31-.41-2a31.8,31.8,0,0,1,6.57,11.74c4.92,15.71,1.54,29.51-9.9,41.33-.35.37-.76.68-1.14,1-.36,0-.45-.17-.49-.46.81-2.13,2.37-3.81,3.51-5.76,3.27-5.57,5.68-11.39,5.9-18a19.25,19.25,0,0,0-.92-6.65,13.43,13.43,0,0,1-.93-3.42Z" transform="translate(-264.82 -115.05)" style="fill:#509476"/><path d="M507.31,370.43c-.24-.19-.13-.4,0-.6a56.07,56.07,0,0,0,5.94-15.34,49.61,49.61,0,0,0,1.57-10.44c0-1.06.47-2.09.33-3.17a63,63,0,0,1,3.84,7.66,105.7,105.7,0,0,1,4.57,11.39A68.18,68.18,0,0,0,507.31,370.43Z" transform="translate(-264.82 -115.05)" style="fill:#27b1d8"/><path d="M559.62,430.55h-.34a15,15,0,0,1-6.44-4.41c-.13-2.92.37-5.82.32-8.73,0-2.19,0-4.38.05-6.56h.28a34.33,34.33,0,0,0,4.12,5.54,97,97,0,0,0,7.16,7.87c1.75,1.66,3.49,3.35,5.4,4.84a4.87,4.87,0,0,1,.66.76,3.76,3.76,0,0,1-2.72.66C565.28,430.57,562.45,431.58,559.62,430.55Z" transform="translate(-264.82 -115.05)" style="fill:#7db787"/><path d="M674.76,388.44c-.64,0-1.12-.08-.89-1q1.05-4.07,1.75-8.21c.2-1.14,0-2.4.84-3.39a1.42,1.42,0,0,1,.92-.93c2.11-.95,4.27-1.78,6.44-2.58a1,1,0,0,1,1.11.1c.68,0,1,.22,1.05,1a76.47,76.47,0,0,0,1.31,10.86c.12.59.46,1.44-.67,1.57.07.2.25.18.41.21-1.88.75-3.92.75-5.85,1.26-1.67.45-3.38.72-5.08,1.07C675.65,388.05,675.21,388.46,674.76,388.44Z" transform="translate(-264.82 -115.05)" style="fill:#abd4e2"/><path d="M565.73,465.85c-4.29-.47-8.58-.89-12.82-1.7-1.71-.32-3.4-.73-5.09-1.14a5.49,5.49,0,0,0-1.33-.2c1.11-4.22,2.16-8.45,3.06-12.72.16-.75,0-1.59.53-2.26-.25,1.95,1.18,3.1,2.2,4.37A141.78,141.78,0,0,0,563.34,464C564.07,464.73,565,465.12,565.73,465.85Z" transform="translate(-264.82 -115.05)" style="fill:#c1b58b"/><path d="M815.29,372.84a18.16,18.16,0,0,1,2.13,6.88c.64,5.71-.72,11-3,16.18a64,64,0,0,1-6.51,10.87,2.47,2.47,0,0,1-.63,1.05v0a1.07,1.07,0,0,0-.36.43c-.3.59-1,.76-1.36,1.27-.13.1-.23.22-.35.33h0a10.09,10.09,0,0,1-2.36,1.86c-.54.33-1.08.6-1.69.16a2.51,2.51,0,0,1,0-.27,60.6,60.6,0,0,0,7.66-11.91A62.62,62.62,0,0,0,814,383.49a47.21,47.21,0,0,0,1-9.7A1.17,1.17,0,0,1,815.29,372.84Z" transform="translate(-264.82 -115.05)" style="fill:#b3cbc1"/><path d="M417,365.7a32.63,32.63,0,0,1,3.72-3.9,36.71,36.71,0,0,0,8-12.54,5.11,5.11,0,0,0,.18-1,60,60,0,0,1,3,10.49,71.35,71.35,0,0,1,1.3,8,19.87,19.87,0,0,0-7.51-1.74,28.05,28.05,0,0,0-8.37.74A.22.22,0,0,1,417,365.7Z" transform="translate(-264.82 -115.05)" style="fill:#7bccc5"/><path d="M643.88,392.18c.72,0,1.07.58,1.49,1a24,24,0,0,0,3.92,3.4c-2.58,1.11-5.17,2.23-7.76,3.32a159.48,159.48,0,0,0-15.2,7.45l-6.93,3.85c-.12-1.12.8-1.52,1.47-2a123.35,123.35,0,0,0,9.87-8.38,8.49,8.49,0,0,0,1.23-1.38,14.39,14.39,0,0,1,2.66-2.07c2.5-1.6,5-3.19,7.58-4.69C642.72,392.36,643.18,391.84,643.88,392.18Z" transform="translate(-264.82 -115.05)" style="fill:#b3d8de"/><path d="M559.62,430.55a71.71,71.71,0,0,0,9-.64,20,20,0,0,1,2.19,0h.33a44.86,44.86,0,0,0,5.08,4.15,87.36,87.36,0,0,0,7.28,4.9,3.29,3.29,0,0,0,1.24.51l-1.78,2a112.68,112.68,0,0,1-19.06-8.2A30.67,30.67,0,0,1,559.62,430.55Z" transform="translate(-264.82 -115.05)" style="fill:#89b394"/><path d="M449.63,398c1.3,0,2.59-.05,3.88,0a40.51,40.51,0,0,0,9.31-1c1.29,1.47,2.9,2.71,3.4,4.75a30.59,30.59,0,0,1-6.09,1.29,64.52,64.52,0,0,1-11.62.73A53.08,53.08,0,0,1,449.63,398Z" transform="translate(-264.82 -115.05)" style="fill:#3aa8ac"/><path d="M353.16,359.89c.44-.41.33-.95.29-1.43a2.69,2.69,0,0,1,1.07-2.52,13.77,13.77,0,0,1,8.59-3.5,15.81,15.81,0,0,1,5,.33,1.11,1.11,0,0,1,.58.32c-.5.46-1,.89-1.5,1.38a24.25,24.25,0,0,1-12.31,6.69,10.29,10.29,0,0,1-1.85.1Z" transform="translate(-264.82 -115.05)" style="fill:#2ca4dd"/><path d="M521.24,295a13.46,13.46,0,0,1-1.36,3.05,56.6,56.6,0,0,0-3.1,7.58c-1.27-1.57-2.53-3.15-3.83-4.7-1.54-1.87-3.11-3.71-4.68-5.56a2.4,2.4,0,0,1,2.15-.7h10.13C520.73,294.92,521.07,294.8,521.24,295Z" transform="translate(-264.82 -115.05)" style="fill:#56c3c2"/><path d="M336.48,363.3a7.79,7.79,0,0,1-3.75.63A5.89,5.89,0,0,1,327.5,361c-.42-.62-1-1.27-.56-2.15h0c.49-.5,1.13-.43,1.74-.49a27.13,27.13,0,0,0,9.46-2.92c.52-.27,1-.78,1.7-.33l.32.34a12.94,12.94,0,0,1-.26,4.43A4.54,4.54,0,0,1,336.48,363.3Z" transform="translate(-264.82 -115.05)" style="fill:#2b98d4"/><path d="M737.25,384.37a1.71,1.71,0,0,1-.15-1.44A73.92,73.92,0,0,0,740,372.58c.17-.92.51-1.75,1.66-1.81,1.42-.13,1.73.62,1.55,1.87a32.76,32.76,0,0,0,.48,12.4v.33C741.55,385,739.37,384.88,737.25,384.37Z" transform="translate(-264.82 -115.05)" style="fill:#afd5de"/><path d="M452.63,341.9c-.39,1.8-.87,3.59-1.15,5.41a53.22,53.22,0,0,0-.9,7.65c0,1.1.28,2.24-.39,3.3-.17.26,0,.77.08,1.14a21.35,21.35,0,0,1,.29,5.7,35.67,35.67,0,0,1-.86-5.13,111,111,0,0,0-3-13.13,4,4,0,0,1-.06-.5c1.54-1.18,3.09-2.36,4.61-3.56A6.66,6.66,0,0,1,452.63,341.9Z" transform="translate(-264.82 -115.05)" style="fill:#4bba9f"/><path d="M527.37,455.69l-7.18-3.76c0-.1,0-.2.07-.3a34.84,34.84,0,0,0,6.39-3.91c1.05-.73,2.07-1.51,3.11-2.26a51.29,51.29,0,0,1-1.53,7.37A9.35,9.35,0,0,1,527.37,455.69Z" transform="translate(-264.82 -115.05)" style="fill:#e4b16e"/><path d="M632.27,399.56a2.85,2.85,0,0,1-1,1.3,107.17,107.17,0,0,1-10.09,8.59,6.15,6.15,0,0,0-1.76,1.76c-2.44,1.62-4.86,3.25-7.31,4.83a8.9,8.9,0,0,1-2.54,1.61,13.28,13.28,0,0,1,2.73-2.72,11.36,11.36,0,0,0,2-2c1-1.59,2.64-2.44,3.93-3.69,3.85-3.13,7.85-6.06,11.93-8.87C630.79,400,631.35,399.22,632.27,399.56Z" transform="translate(-264.82 -115.05)" style="fill:#b0d7da"/><path d="M532.41,426.82a1.49,1.49,0,0,1-1.26.08c-3.24-.67-6.29-2-9.45-2.92l-.8-.23c-.11-.07-.15-.15-.11-.22s.07-.11.11-.11a41.77,41.77,0,0,0,8.1-1.18c1.25-.24,2.49-.57,3.74-.86A27.53,27.53,0,0,1,532.41,426.82Z" transform="translate(-264.82 -115.05)" style="fill:#69a797"/><path d="M396.25,374.17l-6.18,0a117.77,117.77,0,0,0,.43-12.88.74.74,0,0,1,.3.58c-.22,2.83,1.43,5,2.53,7.41A36,36,0,0,0,395.6,373c.3.5.65.94,1.33.82C396.93,374.41,396.65,374.4,396.25,374.17Z" transform="translate(-264.82 -115.05)" style="fill:#41bbd0"/><path d="M369.08,353.08c0-.16,0-.37.09-.49,1.43-1.85,2.39-4,3.69-5.93a34.25,34.25,0,0,1,2.33,8.37c.14.71.22,1.43.32,2.15A12.93,12.93,0,0,0,369.08,353.08Z" transform="translate(-264.82 -115.05)" style="fill:#85d4f2"/><path d="M552.84,426.14l6.44,4.41h-5a3.08,3.08,0,0,1-1.77-.33A18.58,18.58,0,0,1,552.84,426.14Z" transform="translate(-264.82 -115.05)" style="fill:#91b87e"/><path d="M801.12,411.84c.61.13,1-.25,1.51-.53a9.8,9.8,0,0,1,2.54-1.49,11.39,11.39,0,0,1-2.48,3.36Z" transform="translate(-264.82 -115.05)" style="fill:#efefef"/><path d="M336.48,363.3a10.05,10.05,0,0,0,3.45-3.38,5.88,5.88,0,0,1-.42,2.69A17.7,17.7,0,0,1,336.48,363.3Z" transform="translate(-264.82 -115.05)" style="fill:#41bbec"/><path d="M390.82,346.67c-.42,1-1.56,1.22-2.1,2.07a6.17,6.17,0,0,1-.52-1.78A4.9,4.9,0,0,1,390.82,346.67Z" transform="translate(-264.82 -115.05)" style="fill:#6fc6a6"/><path d="M807.23,407.82a1,1,0,0,1,.63-1.05l.36.33A1.05,1.05,0,0,1,807.23,407.82Z" transform="translate(-264.82 -115.05)" style="fill:#8bb6a1"/><path d="M674.76,388.44a.83.83,0,0,1,1.35,0l-.63,0A.55.55,0,0,1,674.76,388.44Z" transform="translate(-264.82 -115.05)" style="fill:#a9d3e3"/><path d="M659.81,247.82c-.38,0-.76.05-1-.31C659.17,247.47,659.55,247.44,659.81,247.82Z" transform="translate(-264.82 -115.05)" style="fill:#ceebf6"/><path d="M674.76,388.44h.72a.77.77,0,0,1-.72.29Z" transform="translate(-264.82 -115.05)" style="fill:#abd4e2"/><path d="M726.05,293.67l0-.38a.87.87,0,0,1,.66.36l-.07.1A.46.46,0,0,1,726.05,293.67Z" transform="translate(-264.82 -115.05)" style="fill:#73d0f2"/><path d="M806.88,408.23a.55.55,0,0,1,.36-.43A.52.52,0,0,1,806.88,408.23Z" transform="translate(-264.82 -115.05)" style="fill:#87b49f"/><path d="M805.17,409.83l.35-.33Z" transform="translate(-264.82 -115.05)" style="fill:#efefef"/><path d="M521.24,295a.77.77,0,0,1-.69-.32,1.39,1.39,0,0,0,1.47-.89,76.15,76.15,0,0,1,5.32-9.23c1.84-2.9,4-5.61,6.06-8.33a114.44,114.44,0,0,1,10.68-11.34c1.32-1.29,2.8-2.43,4.21-3.63a4,4,0,0,0,1.14-1.24h0c.19-.19.5-.13.68-.32l.69-.35a42.7,42.7,0,0,0,5.49-.79c2.66-.33,5.32-.68,8-1a116.16,116.16,0,0,1,12.65-.25,61.14,61.14,0,0,1,6.87.55c1.33.15,2.67.34,4,.44a.43.43,0,0,1,0,.46c-4.47,2.86-9,5.57-13.24,8.85a105.62,105.62,0,0,0-27.94,32.81c-.31.55-.4,1.34-1.28,1.38-2.07-.87-4.11-1.79-6.2-2.62a63.17,63.17,0,0,0-14.24-3.92A24,24,0,0,0,521.24,295Z" transform="translate(-264.82 -115.05)" style="fill:#8fd1c4"/><path d="M550.11,259.73a.7.7,0,0,1-.68.32A.65.65,0,0,1,550.11,259.73Z" transform="translate(-264.82 -115.05)" style="fill:#a8dac6"/><path d="M743.7,385c-1.06-.28-.89-1.3-1-2a44.06,44.06,0,0,1-.41-7.08c.09-1.12.28-2.23.42-3.34s-.16-1.59-1.09-1.9c.56-.69.43-1.58.65-2.37a40.15,40.15,0,0,1,3.29-8.94,12.65,12.65,0,0,0,.7-1.7c.44-1.12.44-1.12-.92-1.26.13-.86.86-.71,1.42-.8,1.57-.27,3.18-.24,4.75-.57a6.94,6.94,0,0,1,3.59.17c.52.45.35,1,.28,1.59a62.09,62.09,0,0,1-2.21,10.1,6.32,6.32,0,0,1-1,1.74,73.09,73.09,0,0,1-3.27,7.62A70.74,70.74,0,0,1,743.7,385Z" transform="translate(-264.82 -115.05)" style="fill:#a8d2da"/><path d="M752.2,368.73a77.25,77.25,0,0,0,3-13.27.43.43,0,0,1,.23-.53,74.06,74.06,0,0,1,7.44-.58,1.41,1.41,0,0,1,1.21.43c3,0,6.08,0,9.11.07.61,0,1.25-.15,1.79.28-1.3,0-2.6.07-3.9,0a2.31,2.31,0,0,0-2,1A40.53,40.53,0,0,1,753.92,368C753.36,368.29,752.78,368.5,752.2,368.73Z" transform="translate(-264.82 -115.05)" style="fill:#b2d1b7"/><path d="M618.41,409.53a34.15,34.15,0,0,1-4.09,3.4A54.86,54.86,0,0,0,612.41,402a63.4,63.4,0,0,0-10.94-22.16,56.42,56.42,0,0,0-6.06-7,67.13,67.13,0,0,0-12.75-9.69,9.12,9.12,0,0,0-3-1.51v-.34c0-.5,0-1,0-1.52a70,70,0,0,0-.6-9.26,58.38,58.38,0,0,0-2.83-12.14A62.55,62.55,0,0,0,567,320.73a46.7,46.7,0,0,0-4.45-5.31,29.53,29.53,0,0,1-2.25-2.72c-.16-1,.68-1.51,1.26-2.06a105.74,105.74,0,0,1,21.1-15.55,101.78,101.78,0,0,1,34.79-11.87,121.7,121.7,0,0,1,22.81-1.13,3.57,3.57,0,0,1,1.21.46c4.13,4.05,8.5,7.88,12,12.53a.84.84,0,0,1-.14.48,78.77,78.77,0,0,0-8.06,7c-9.71,10.21-15.88,22.16-17.7,36.23-.13,1-.3,2-.36,3a2.15,2.15,0,0,1-.15.51,2.77,2.77,0,0,1-.26.48l-.16.23a63.59,63.59,0,0,0-10.72,20.1A68,68,0,0,0,613,380a64.16,64.16,0,0,0,5,28.11A3.56,3.56,0,0,1,618.41,409.53Z" transform="translate(-264.82 -115.05)" style="fill:#49b9bf"/><path d="M641.47,282.81a2.25,2.25,0,0,1-1-.34c-2.54-1.6-4.8-3.57-7.23-5.32a99.23,99.23,0,0,0-38.09-17c-1.72-.36-3.43-.73-5.16-1-.6-.1-1.27-.09-1.53-.83a23.67,23.67,0,0,1,5-2.76,102.66,102.66,0,0,1,14.21-5.47,90.16,90.16,0,0,1,13-3c1.62-.23,3.23-.49,4.84-.74l.33.08c1.26,1.19,2.47,2.46,3.81,3.56a28,28,0,0,1,4.51,4.53c1,1.28,2.21,2.4,3.29,3.62a100.71,100.71,0,0,1,9.79,13.3,90.46,90.46,0,0,1,6.8,13l-.26.13c-3.17-.07-6.24-.89-9.38-1.19A5.68,5.68,0,0,1,641.47,282.81Z" transform="translate(-264.82 -115.05)" style="fill:#5dbbd0"/><path d="M701.25,283.83a101.66,101.66,0,0,1,8.51,15.08c.52,1.15,1.33,2.24,1.34,3.6.21.45-.08.78-.35,1a64.69,64.69,0,0,0-5.72,6.87,1.12,1.12,0,0,1-.48.1c-2.13-1.3-3.82-3.15-5.75-4.69a101.4,101.4,0,0,0-30.95-17.24,3.71,3.71,0,0,1-1.23-.56.35.35,0,0,1,0-.46,84.37,84.37,0,0,1,10.68-3.15,46.61,46.61,0,0,1,9.84-1.26c1.09,0,2.09-.41,3.18-.36,2.81.1,5.61.27,8.4.64a18,18,0,0,0,2.2.05h0C701,283.61,701.22,283.63,701.25,283.83Z" transform="translate(-264.82 -115.05)" style="fill:#3cafde"/><path d="M666.6,287.57c0,.11,0,.22,0,.33-2.89,1.75-6,3-8.94,4.78a.68.68,0,0,1-.65,0c-1.12-2.67-2.44-5.28-3-8.16v0a58.85,58.85,0,0,1,7.53,1.67C663.27,286.57,664.87,287.32,666.6,287.57Z" transform="translate(-264.82 -115.05)" style="fill:#63bfc2"/><path d="M454.33,336.47c-.46-5.77-.32-11.55-.34-17.32l.31,0a26.65,26.65,0,0,1,8.86,1.38c.28.71-.21,1.17-.56,1.66a62.86,62.86,0,0,0-7.07,12.89C455.29,335.64,455.25,336.45,454.33,336.47Z" transform="translate(-264.82 -115.05)" style="fill:#81c247"/><path d="M509,423.42h-.33a1.83,1.83,0,0,1-1.59.37,62.73,62.73,0,0,1-20.12-6,2.73,2.73,0,0,1-1.38-1.19l0-.35a3.38,3.38,0,0,1-.41-2.73,60,60,0,0,1,1.73-10.24A61.36,61.36,0,0,1,493,387.75a10.29,10.29,0,0,1,1.16-1.61,60.61,60.61,0,0,0,8.64-9.81c.37-.49.57-1.27,1.46-1.14a43.18,43.18,0,0,1,4.41,5.75,38.73,38.73,0,0,1,5.84,15.7,49.56,49.56,0,0,1,.19,10,32.53,32.53,0,0,1-3.65,12.74A6,6,0,0,1,509,423.42Z" transform="translate(-264.82 -115.05)" style="fill:#5b9b9f"/><path d="M485.59,416.63A62.35,62.35,0,0,0,504.68,423a13.76,13.76,0,0,0,4,.43,13.42,13.42,0,0,1-3,4.42,33,33,0,0,1-6.94,6.4,1.76,1.76,0,0,1-.91.39c-1.67-1-2.73-2.64-4-4a92.25,92.25,0,0,1-7.2-9.15,10.83,10.83,0,0,1-1-2.11Z" transform="translate(-264.82 -115.05)" style="fill:#639da1"/><path d="M487.28,403.05a21.13,21.13,0,0,1-.75,3.93,59.4,59.4,0,0,0-1,9.3c-1.07.33-1.74-.29-2.35-1a5.85,5.85,0,0,1-2-2.46,126.8,126.8,0,0,1-5.73-12,3.38,3.38,0,0,1-.39-1.79,1.16,1.16,0,0,1,.2-.47,21.61,21.61,0,0,1,5.48-2.57,2.76,2.76,0,0,1,1.71,1.25,23.12,23.12,0,0,0,4,4C487,401.7,487.62,402.18,487.28,403.05Z" transform="translate(-264.82 -115.05)" style="fill:#2b92d0"/><path d="M485.57,419.34c1.59,2.16,3.14,4.35,4.78,6.46a52,52,0,0,0,4.65,5.5,23.48,23.48,0,0,1,2.81,3.33V435a44.34,44.34,0,0,1-8,4.18,2.75,2.75,0,0,1-1.13.23c-.76-2.87-1.63-5.71-2.16-8.65A54.38,54.38,0,0,1,485.57,419.34Z" transform="translate(-264.82 -115.05)" style="fill:#689c9f"/><path d="M475.38,399a4.47,4.47,0,0,0,.7,2.22,100.14,100.14,0,0,0,7.12,14.1,25.6,25.6,0,0,1-4.87-2.93,73.54,73.54,0,0,1-9.07-7.44,39.19,39.19,0,0,1-2.7-3.21c.39-.66,1.11-.72,1.75-.91Q471,400,473.62,399C474.2,398.78,474.78,398.48,475.38,399Z" transform="translate(-264.82 -115.05)" style="fill:#2b8aca"/><path d="M475.38,399a30.88,30.88,0,0,0-4,1.31l-4.84,1.43h-.34c-1-1.28-2-2.57-3-3.85a1.47,1.47,0,0,1-.39-.9c1.87-.68,3.75-1.33,5.6-2.05a22.18,22.18,0,0,0,4.59-2.37l.21.13a28.34,28.34,0,0,1,2.17,6C475.38,398.73,475.38,398.84,475.38,399Z" transform="translate(-264.82 -115.05)" style="fill:#33a5ac"/><path d="M588.45,258.32c.64.47,1.41.31,2.12.44a110.71,110.71,0,0,1,17.73,4.67A106.8,106.8,0,0,1,623,270.15a121.06,121.06,0,0,1,14.19,9.4,10.63,10.63,0,0,1,3.24,2.92H632a92.39,92.39,0,0,0-12.43,1,106.1,106.1,0,0,0-14,2.77,85.24,85.24,0,0,0-12.58,4.4c-1.8.81-3.65,1.51-5.41,2.39a109.52,109.52,0,0,0-16.24,10,91.47,91.47,0,0,0-10,8.55,3.89,3.89,0,0,0-1,1.15H560a78.12,78.12,0,0,0-6.85-5.73,55.16,55.16,0,0,0-7.75-4.79v-.32c1.4-2.38,2.75-4.79,4.2-7.14a93.55,93.55,0,0,1,8.63-11.91,113.61,113.61,0,0,1,11-11.23,105.68,105.68,0,0,1,10-7.8,53.48,53.48,0,0,1,8.55-5.1,3.47,3.47,0,0,1,.37-.3A1.45,1.45,0,0,1,588.45,258.32Z" transform="translate(-264.82 -115.05)" style="fill:#4bb9d7"/><path d="M735.57,357.83c-3.26.68-6.51,1.34-9.76,2.05q-8.5,1.86-16.87,4.31-10.08,2.94-19.92,6.62a3.25,3.25,0,0,1-1.3.33c-.22.16-.54.1-.74.31h0c-1.37.54-1.39-.48-1.43-1.32a39.13,39.13,0,0,1,.45-6.58A64,64,0,0,1,702.08,328a18.64,18.64,0,0,1,3-3.17,1.36,1.36,0,0,1,.77-.13,60.73,60.73,0,0,1,13.93,9.17,81,81,0,0,1,8.83,9.32,74,74,0,0,1,7.52,12.64c.25.54.7,1.06.43,1.74h0C736.3,357.8,735.86,357.57,735.57,357.83Z" transform="translate(-264.82 -115.05)" style="fill:#34a4d3"/><path d="M705.32,324.92a40.45,40.45,0,0,1-3,3.43,65.09,65.09,0,0,0-7.24,9.92,62.54,62.54,0,0,0-6.25,13.82,60.88,60.88,0,0,0-2.24,10.51c-.29,2.57-.54,5.13-.65,7.71,0,.75.17,1.21,1,1.14-.56.58-1.48.44-2.05,1a66,66,0,0,0-8.47,3.41l-.35-.05c-.86-1.17-.22-2.43-.08-3.6a104.33,104.33,0,0,0-1.21-29.36,100.48,100.48,0,0,0-6.58-22.05c-.27-.66-.74-1.31-.33-2.09a2.93,2.93,0,0,1,1.76-.52,72.8,72.8,0,0,1,11-.35,75.91,75.91,0,0,1,16.13,2.88,16.1,16.1,0,0,1,1.92.66c1.74.8,3.62,1.28,5.31,2.21C704.54,323.92,705.33,324,705.32,324.92Z" transform="translate(-264.82 -115.05)" style="fill:#33a5d6"/><path d="M705.32,324.92a20.54,20.54,0,0,0-5-2.38c-.5-.22-1.1-.21-1.5-.67,1.13-1.8,1.44-3.92,2.34-5.8s1.72-4.18,3.44-5.75H705c2.24,1.38,3.8,3.48,5.61,5.32.2.2.34.45.52.67,1.64,1.94,1.67,1.94,3.85.55a68,68,0,0,1,17.17-7.94c.81-.24,1.64-.56,2.41.12,1.87,3.34,2.86,7,4,10.63a105.63,105.63,0,0,1,4.3,35.22c0,.72,0,1.5-.8,1.9a39.51,39.51,0,0,1-5.42.77,94,94,0,0,0-7.06-12.47c-.4-.57-1.13-1-1.12-1.83-2.5-3.95-4.5-8.18-7-12.15a128.54,128.54,0,0,0-7.8-10.61,1.17,1.17,0,0,0-1.88-.23,33.87,33.87,0,0,0-4,3.33c-.49.52-.92,1.16-1.71,1.32Z" transform="translate(-264.82 -115.05)" style="fill:#33acd7"/><path d="M742,356.79a3.11,3.11,0,0,0,.33-1.8c0-3.73.1-7.47-.05-11.2-.07-1.72-.29-3.46-.51-5.19-.25-2-.46-4-.79-6a94.28,94.28,0,0,0-2.23-10.37A111,111,0,0,0,734.19,309a.36.36,0,0,1,.09-.5c2.4-.73,4.78-1.6,7.36-1.2l.36.05a3,3,0,0,0,.89,1.6A63.17,63.17,0,0,1,754,332.61c.61,2.62,1,5.29,1.32,8s.15,5.18.35,7.76a1.55,1.55,0,0,0,0,.23c-1.34,1.8-3.2,3.12-4.53,5-.75,1-.65,1.55.48,2a30.91,30.91,0,0,1-4.59.64c-.53.1-1.13-.1-1.59.34h0c-.72.68-1.66-.18-2.4.35Z" transform="translate(-264.82 -115.05)" style="fill:#3baec8"/><path d="M743,356.84c.74-.54,1.6-.27,2.4-.35,0,.48-.26.78-.75.61A4.46,4.46,0,0,0,743,356.84Z" transform="translate(-264.82 -115.05)" style="fill:#a8d2da"/><path d="M735.57,357.83c.26-.37.65-.29,1-.28C736.32,357.9,735.94,357.86,735.57,357.83Z" transform="translate(-264.82 -115.05)" style="fill:#33acd7"/><path d="M687,371.45a.69.69,0,0,1,.74-.31A.83.83,0,0,1,687,371.45Z" transform="translate(-264.82 -115.05)" style="fill:#33a5d6"/><path d="M509,423.42l2-4.08c1.59.42,2.88,1.45,4.39,2s2.88,1.2,4.32,1.82a2.64,2.64,0,0,0,1.14.22v.33c-3.08,0-6.16,0-9.25,0A8.13,8.13,0,0,1,509,423.42Z" transform="translate(-264.82 -115.05)" style="fill:#61a8a9"/><path d="M504.26,375.19a16.91,16.91,0,0,0-2.35,3,70.68,70.68,0,0,1-7.08,7.9,2.58,2.58,0,0,1-.43.26c-.41-.51-.1-1,.15-1.39a71,71,0,0,1,7.57-10.1,2.54,2.54,0,0,1,1.12-.73c1.07-.61,1.65-1.77,2.72-2.37a4.4,4.4,0,0,1-.86,1.78C504.8,374.1,504.26,374.51,504.26,375.19Z" transform="translate(-264.82 -115.05)" style="fill:#43aa9c"/><path d="M391.84,346.33a.64.64,0,0,1-.71.3A.75.75,0,0,1,391.84,346.33Z" transform="translate(-264.82 -115.05)" style="fill:#6bc6b5"/><path d="M480.83,331h.68c1.05,1.81,2.64,3.2,3.81,4.93a42,42,0,0,1,5.39,11.21,41.14,41.14,0,0,1,1.67,13.33c-.05,1.86-.46,3.67-.69,5.5-.68.46-1.32.12-1.93-.13A44.58,44.58,0,0,0,476,363.15a43.54,43.54,0,0,0-5.9.46,2.73,2.73,0,0,1-2-.28c-.76-1.55-.44-3.22-.36-4.81a111.45,111.45,0,0,1,2.34-18.92c.39-1.7.7-3.42,1.22-5.09a4.1,4.1,0,0,1,1-1.92A15.65,15.65,0,0,1,480.83,331Z" transform="translate(-264.82 -115.05)" style="fill:#3bb4a2"/><path d="M468.26,363.3c1.87-.33,3.8-.22,5.68-.58a8,8,0,0,1,2.19-.08c4.75.46,9.5.93,13.95,2.89a12.48,12.48,0,0,0,1.61.49v.34c.38,1.29-.22,2.44-.57,3.61a38.32,38.32,0,0,1-13.3,19.71A28.34,28.34,0,0,1,474.7,392c-.52.3-1,.79-1.69.52h0a78.81,78.81,0,0,1-3-12.2,81.12,81.12,0,0,1-1.42-12.83c0-1.27-.42-2.54-.3-3.84-.09-.07-.12-.15-.09-.22S468.23,363.3,468.26,363.3Z" transform="translate(-264.82 -115.05)" style="fill:#3cb1a1"/><path d="M473,392.52a37.34,37.34,0,0,0,9.45-7.82,50.28,50.28,0,0,0,5.07-7.15,38,38,0,0,0,3.13-7.46c.4-1.23.69-2.49,1-3.73a35.64,35.64,0,0,1,10.4,6.83,4.5,4.5,0,0,0,1.15,1,86.89,86.89,0,0,0-8.06,10.56,4.22,4.22,0,0,0-.78,1.66l-1,1.36A54.15,54.15,0,0,1,483,395.39a6.23,6.23,0,0,1-2.16.86l-3.9,1.78a4.2,4.2,0,0,1-1.53.59,11,11,0,0,1-1.53-3.43C473.52,394.32,473.29,393.41,473,392.52Z" transform="translate(-264.82 -115.05)" style="fill:#2da8ab"/><path d="M764.09,354.78c-2.94.09-5.87.5-8.82.41a1.12,1.12,0,0,1-.4-1.06c.41-1.9-.24-3.94.73-5.77l.07,0a19.89,19.89,0,0,1,4.67-3.81,41.36,41.36,0,0,1,15.63-6,3.85,3.85,0,0,1,.68,0,24.51,24.51,0,0,1-2,8.12,39.73,39.73,0,0,1-2.92,5.88c-.74,1.31-1.59,2.22-3.3,2a22.9,22.9,0,0,0-3.21,0A1.25,1.25,0,0,0,764.09,354.78Z" transform="translate(-264.82 -115.05)" style="fill:#4ca857"/><path d="M588.15,258.38l-.37.3c0-.11,0-.21,0-.32A1.83,1.83,0,0,1,588.15,258.38Z" transform="translate(-264.82 -115.05)" style="fill:#5dbbd0"/><path d="M454.33,336.47c.55-.4.58-1.06.82-1.62a59.79,59.79,0,0,1,7.45-13.31,9.27,9.27,0,0,0,.56-1h.35a38.21,38.21,0,0,1,11.2,5.09v0a17.3,17.3,0,0,1-2.28,7.17c-1.37,1.12-3.15,1.19-4.72,1.78a65.72,65.72,0,0,0-11.18,5.22,5.22,5.22,0,0,1-1.86.76l-1.69,1C453.25,339.78,454.12,338.21,454.33,336.47Z" transform="translate(-264.82 -115.05)" style="fill:#78c152"/><path d="M409.83,389.1h-.34a6.26,6.26,0,0,1-2.45-1.73c-1.73-1.7-3.44-3.42-5.15-5.14a2.66,2.66,0,0,1-.89-3.17c1.55-2.82,3.11-5.64,5.78-7.61a68.73,68.73,0,0,0,8.45-4.86,2.4,2.4,0,0,1,1.38-.55,34.88,34.88,0,0,1,.37,6,23.67,23.67,0,0,1-5.62,15C410.83,387.75,410.34,388.43,409.83,389.1Z" transform="translate(-264.82 -115.05)" style="fill:#26a4dd"/><path d="M417,365.7a1.17,1.17,0,0,1,.32,0L417,366C417,365.9,417,365.8,417,365.7Z" transform="translate(-264.82 -115.05)" style="fill:#39b8c7"/><path d="M454.66,340.54a41.14,41.14,0,0,1,7.81-4.34,66.42,66.42,0,0,1,9.86-3.5.19.19,0,0,1,.34,0,6.28,6.28,0,0,0-1.12,2.95c-.73,3.27-1.49,6.54-2,9.86-.33,2.21-.44,4.45-.92,6.64a2.19,2.19,0,0,0,0,.51c.12,3.54-.59,7.06-.34,10.6v.34a14.15,14.15,0,0,0-5.69,1.32,3.11,3.11,0,0,1-1.11.38c-1-2.71-2-5.4-2.86-8.13a94.79,94.79,0,0,1-3.3-13.94A6,6,0,0,0,454.66,340.54Z" transform="translate(-264.82 -115.05)" style="fill:#42b59c"/><path d="M472.67,332.74l-.34,0,2.37-7.09a45.34,45.34,0,0,1,5,3.85c.51.39,1.1.81,1.12,1.58-2.41.46-4.81.9-7.22,1.37A7,7,0,0,0,472.67,332.74Z" transform="translate(-264.82 -115.05)" style="fill:#6cbe5d"/><path d="M406.78,371.46a50.19,50.19,0,0,0-4.41,5.94,6.91,6.91,0,0,0-1.37,3.22c-.1.16-.21.17-.33,0-.37-1.35-1.47-2.21-2.22-3.3s-1.46-2.11-2.2-3.16a.7.7,0,0,0,.68-.34,28.57,28.57,0,0,0,8.75-2A2.93,2.93,0,0,1,406.78,371.46Z" transform="translate(-264.82 -115.05)" style="fill:#34b9e0"/><path d="M701.25,283.83l-.35-.34c.38,0,.78-.06,1,.33Z" transform="translate(-264.82 -115.05)" style="fill:#65bfe6"/><path d="M400.67,380.63H401a76.17,76.17,0,0,0,7.73,7.62,2.29,2.29,0,0,1,.76.87,19,19,0,0,1-5.32,4,11.41,11.41,0,0,1-4.5,1.77,16,16,0,0,1-.58-5.11,20.09,20.09,0,0,1,1-6.9A6.13,6.13,0,0,0,400.67,380.63Z" transform="translate(-264.82 -115.05)" style="fill:#2ca4dd"/><path d="M293,347.71a14.68,14.68,0,0,1,.88-2.7,6.84,6.84,0,0,1,7-3.43c2.7.28,4.7,2.17,5.54,5.14a1,1,0,0,0,.2.27c0,.68,0,1.36.07,2,.09.09.11.16.06.23a.17.17,0,0,1-.12.08.67.67,0,0,0-.26.74,6.73,6.73,0,0,1-5.31,4.83c-3.53.76-7.33-2.05-7.68-5.14-.37-.65.18-1.45-.34-2.07Z" transform="translate(-264.82 -115.05)" style="fill:#fff"/><path d="M306.55,349.34a1.7,1.7,0,0,1,.06-.31l1.72-1a17,17,0,0,0,2,4.15,2.47,2.47,0,0,1,.4.89,17.73,17.73,0,0,1-2.67-2.45A6.9,6.9,0,0,0,306.55,349.34Z" transform="translate(-264.82 -115.05)" style="fill:#85ceb8"/><path d="M741.64,307.26l-7.44,1.36c-.64.17-.77-.36-.93-.74a99,99,0,0,0-6.51-12.25,1.94,1.94,0,0,1-.38-1.28l-.33-.68.62.08a31,31,0,0,1,5.5,3.87,61.08,61.08,0,0,1,6.4,6.06C739.66,304.81,740.62,306.06,741.64,307.26Z" transform="translate(-264.82 -115.05)" style="fill:#40b3e1"/><path d="M339.87,355.15c-1.45.59-2.77,1.42-4.24,2a23,23,0,0,1-8.66,1.75c-1.07-2.38.36-5.85,2.45-7.3A6.72,6.72,0,0,1,339.87,355.15Z" transform="translate(-264.82 -115.05)" style="fill:#2997d1"/><path d="M326.94,358.89c.92,2.67,2.6,4.46,5.52,4.85.1,0,.18.12.27.19a24.94,24.94,0,0,1-16.12-4.84,16.32,16.32,0,0,1-4.6-4.62,1.67,1.67,0,0,1,.92.38A24.13,24.13,0,0,0,326.94,358.89Z" transform="translate(-264.82 -115.05)" style="fill:#3cbbec"/><path d="M668,318.81c1,2.57,2,5.13,3,7.71a92.9,92.9,0,0,1,3.46,11.81c.67,2.85,1,5.74,1.59,8.6.27,1.43.14,2.94.47,4.35.57,2.45.21,4.93.53,7.4a21.75,21.75,0,0,1-.13,7.24,5.22,5.22,0,0,0-.09,1.18,38.41,38.41,0,0,1-.66,7.72,6.82,6.82,0,0,0,0,1l-7.53,3.44c-7.84,3.6-15.54,7.49-23,11.84-.53.31-1.11.54-1.67.8-1.26-.61-1.76-2-2.86-2.79a65.36,65.36,0,0,1-14.73-35.79c-.26-2.88-.17-5.75-.25-8.62a4.85,4.85,0,0,1,.46-2.12h0l.33-.34v-.35c1.86-3.32,4.77-5.73,7.55-8.16a62.53,62.53,0,0,1,23.66-13.16,56.08,56.08,0,0,1,9.43-2A.72.72,0,0,1,668,318.81Z" transform="translate(-264.82 -115.05)" style="fill:#31a7d7"/><path d="M641.48,389.11a8.18,8.18,0,0,1,2.43,2.8l0,.27c-2.62,1.38-5.07,3-7.6,4.59a4.38,4.38,0,0,1-1.59.89c-.24-.44,0-.78.27-1.06C637.13,394.1,639.08,391.41,641.48,389.11Z" transform="translate(-264.82 -115.05)" style="fill:#369cc8"/><path d="M293,347.7c.68.59.3,1.37.34,2.07C292.82,349.14,293.09,348.39,293,347.7Z" transform="translate(-264.82 -115.05)" style="fill:#ceebf6"/><path d="M726.38,294.35a80.14,80.14,0,0,1,7.19,13.3,1.81,1.81,0,0,0,.63,1c0,.12,0,.23,0,.34a4.68,4.68,0,0,0-1.65.27A66.53,66.53,0,0,0,720.78,314a64.36,64.36,0,0,0-7,4.17c-.69.5-1.16.52-1.68-.16-2.14-2.79-4.89-5-7.15-7.67a5,5,0,0,1,1.14-2,64.12,64.12,0,0,1,5-5.82,1.5,1.5,0,0,0,1-.51,37.42,37.42,0,0,1,12.6-7.49A5.51,5.51,0,0,1,726.38,294.35Z" transform="translate(-264.82 -115.05)" style="fill:#36addf"/><path d="M641.48,389.11c-.58,1.32-1.7,2.23-2.52,3.36-1.32,1.82-3.11,3.25-4.27,5.19-.64.84-1.76,1.07-2.42,1.9a79.73,79.73,0,0,0-7.78,5.38c-2.07,1.48-4.06,3.05-6.08,4.59a6.4,6.4,0,0,1-1.35-2.69,60.07,60.07,0,0,1-3.81-13.95c-.39-2.62-.44-5.26-.74-7.87a47,47,0,0,1,.19-8.06,56.56,56.56,0,0,1,2.08-11.57,61.81,61.81,0,0,1,11.75-22.8c0,2.2-.06,4.41,0,6.61a64.78,64.78,0,0,0,4.47,22,65.44,65.44,0,0,0,9.53,16.47C640.88,388.15,641.16,388.64,641.48,389.11Z" transform="translate(-264.82 -115.05)" style="fill:#339bc2"/><path d="M755.6,348.36a45.83,45.83,0,0,1-.33,6.83l-.06.27-3.64.06a7.59,7.59,0,0,1-2.06-.21A25.38,25.38,0,0,1,755.6,348.36Z" transform="translate(-264.82 -115.05)" style="fill:#36a9bf"/><path d="M668,318.81h-.34c-1.86-3.22-3.41-6.6-5.3-9.8A102.56,102.56,0,0,0,654,296.72a1.85,1.85,0,0,1-.61-1.35V295a5.13,5.13,0,0,1,3.74-2.41,76.93,76.93,0,0,1,8.35-4.48,2.37,2.37,0,0,1,1.14-.25,36,36,0,0,1,6.87,2.28c1.69.62,3.29,1.48,4.92,2.25a102.59,102.59,0,0,1,13.75,7.93c3.07,2.08,6,4.4,8.84,6.73,1.28,1,2.34,2.29,3.68,3.23A46.62,46.62,0,0,0,699.92,321a1.07,1.07,0,0,1-1,.92,84.64,84.64,0,0,0-9.79-2.51,44.11,44.11,0,0,0-7.68-.9c-1.75,0-3.46-.58-5.21-.32-2.17.33-4.38.17-6.54.6A10.48,10.48,0,0,1,668,318.81Z" transform="translate(-264.82 -115.05)" style="fill:#3bafd8"/><path d="M653.36,295.37a76.93,76.93,0,0,1,6.81,9.17c1.09,1.66,2.13,3.42,3.08,5.2,1.29,2.43,2.56,4.88,3.84,7.32a3.11,3.11,0,0,1,.53,1.75,5.62,5.62,0,0,1-2.43.6,56.23,56.23,0,0,0-18.57,6.37,66.43,66.43,0,0,0-11,7.48c-2.52,2.11-4.68,4.57-7.08,6.79-.61.57-.81,1.51-1.67,1.85a50.92,50.92,0,0,1,1.71-10.62,57.19,57.19,0,0,1,4.93-13.12,72.2,72.2,0,0,1,9.15-13.36,73.35,73.35,0,0,1,9.92-9.14A1.38,1.38,0,0,1,653.36,295.37Z" transform="translate(-264.82 -115.05)" style="fill:#35add7"/><path d="M657.1,292.63,653.36,295a3.3,3.3,0,0,1-1.14-1c-3.14-3.79-6.85-7-10.24-10.57a6.57,6.57,0,0,1-.51-.67A59.48,59.48,0,0,1,651.6,284c.81.13,1.71,0,2.44.5A41.2,41.2,0,0,1,657.1,292.63Z" transform="translate(-264.82 -115.05)" style="fill:#5cbbb2"/><path d="M626.86,342.25l-.33.34Z" transform="translate(-264.82 -115.05)" style="fill:#339bc2"/><path d="M480.82,396.25c2-1.33,4.11-2.45,6.08-3.82a53.34,53.34,0,0,0,5.94-4.62c.17-.16.34-.31.55-.06a64.88,64.88,0,0,0-5.9,15c0,.1-.14.17-.21.26a1.52,1.52,0,0,0-.75-1.25,21.39,21.39,0,0,1-4.58-4.58A3,3,0,0,0,480.82,396.25Z" transform="translate(-264.82 -115.05)" style="fill:#2490cc"/><path d="M706,324.92a28.55,28.55,0,0,1,6-5.38c.73-.56,1.25-.19,1.72.39,1.32,1.67,2.68,3.32,4,5A111.18,111.18,0,0,1,728,342a2.87,2.87,0,0,1,.46,1.26c-1.3-.69-1.94-2-2.85-3.08a52,52,0,0,0-5.61-5.59c-1.33-1.12-2.61-2.3-4-3.35a65.42,65.42,0,0,0-9.13-5.74A1.7,1.7,0,0,1,706,324.92Z" transform="translate(-264.82 -115.05)" style="fill:#35acd1"/><line x1="54.57" y1="424.88" x2="521.8" y2="424.88" style="fill:none;stroke:#2b3990;stroke-miterlimit:10;stroke-width:0.62599644025445px"/><path d="M334.76,507.69c-1.38,7.85-3.2,13.87-5.45,18l-2.49-2.91q3.42-6.22,5.1-16.62Zm.15,25-.69-3.94a36.78,36.78,0,0,0,4,.28c1.13,0,1.73-.8,1.73-2.35V496.93h3v30.73c0,3.35-1.23,5-3.63,5Zm20-9.12-2.58,2.35c-1.25-5.54-2.93-11.72-5-18.58l2.61-2.15C352.1,512.2,353.78,518.29,355,523.56Z" transform="translate(-264.82 -115.05)" style="fill:#2b3990"/><path d="M406,498v11.8H391.08l1.44,1c-.36,1-.75,1.88-1.11,2.71H404v3q-3.69,14.41-21.54,16.7l-1.37-3.31a30.53,30.53,0,0,0,12-3.66,44.66,44.66,0,0,0-4.74-4.27l1.92-2.47a39.16,39.16,0,0,1,5.3,5,17.74,17.74,0,0,0,5.33-7.57H389.58a18.65,18.65,0,0,1-7.19,6.86l-1.55-3.19q5.93-2.94,8.92-10.84h-7.67V498Zm-16.93,3.27h-4.13v5.22h4.13Zm7,0h-4.28v5.22h4.28Zm7,0h-4.28v5.22h4.28Z" transform="translate(-264.82 -115.05)" style="fill:#2b3990"/><path d="M433.38,515.27v-3.63h27.23v3.63H442.85l-.87,3.82h14.56c-.24,6.74-.72,10.72-1.47,12s-2.22,1.87-4.38,1.87a23.48,23.48,0,0,1-3.95-.32l-1-3.42a35.61,35.61,0,0,0,4.29.32c1.49,0,2.45-.4,2.81-1.2a24,24,0,0,0,.75-5.78h-15l1.41-7.25Zm22.74-17.74V509H437.9V497.53Zm-2.88,3.39H440.78v4.7h12.46Z" transform="translate(-264.82 -115.05)" style="fill:#2b3990"/><path d="M511.24,532.48h-2.91v-2.27H491.74v2.27h-2.88V500.8h22.38Zm-2.91-6v-22H491.74v22Z" transform="translate(-264.82 -115.05)" style="fill:#2b3990"/><path d="M540.81,500.76v-3.15h11.32v3.15h-4.31v2.31h3.86V506h-3.86v2.31h4.52v2l0,0h1.38v-2h4.52V506h-3.83v-2.95h3.83v-2.31H554v-3.15h11.32v3.15H561v2.31h3.89V506H561v2.31h4.52v3.23H555c2.57,2.23,6.44,4.26,11.56,6.06L565,520.69c-5.36-2-9.34-4.43-12-7.3a31.44,31.44,0,0,1-12.1,7.26l-1.53-3A35.33,35.33,0,0,0,551,511.56H540.57v-3.23h4.52V506h-3.86v-2.95h3.86v-2.31Zm14.68,18.53-1.32,2h8.17v2.95a17.51,17.51,0,0,1-11.8,8.93l-1.25-3.35a16.4,16.4,0,0,0,9.61-5.1H543.26v-3.43h10.31a26.36,26.36,0,0,0-3.39-3.38l1.74-2.12A19.47,19.47,0,0,1,555.49,519.29Z" transform="translate(-264.82 -115.05)" style="fill:#2b3990"/><path d="M604.71,499.92c-.42-1.19-.84-2.31-1.32-3.35l3.05-.63c.42,1.19.81,2.51,1.2,4H618v3.51h-4.62a37.17,37.17,0,0,1-1.58,5.5h7.57v3.51H592.79v-3.51h7.42c-.45-2-.92-3.83-1.4-5.5h-4.62v-3.51Zm11,33.2h-2.85v-1.59H599.37v1.59h-2.84V515h19.23Zm-2.85-11.44v-3.42H599.37v3.42Zm0,6.58v-3.35H599.37v3.35ZM603,508.93h6a32.85,32.85,0,0,0,1.56-5.5h-8.81C602.19,505.1,602.61,506.94,603,508.93Z" transform="translate(-264.82 -115.05)" style="fill:#2b3990"/><path d="M653.27,519.41a63.9,63.9,0,0,1-5.21,12.08l-2.49-2.39a50.2,50.2,0,0,0,5.18-11.32Zm-4.16-20.64a13.65,13.65,0,0,0,2.27.31q10.43-.06,16.9-2.7l1.34,3.18q-7,2.52-18.21,2.75c-.42,3.43-.87,6.5-1.32,9.25h7.82v-7.33h2.88v7.33h10.69v3.71H660.79v13.35c0,2.87-1,4.34-3.09,4.34h-4l-.63-3.7a29.86,29.86,0,0,0,3.68.24c.78,0,1.2-.64,1.2-1.84V515.27H647Q648.48,505.94,649.11,498.77Zm22.85,31-2.7,1.8a102.07,102.07,0,0,0-4.85-12.44l2.52-1.59Q669.53,523.13,672,529.81Z" transform="translate(-264.82 -115.05)" style="fill:#2b3990"/><path d="M713.6,496.17v6.9h10.66v19.25h-2.84v-2.27H713.6V533.4h-2.93V520.05h-7.79v2.27H700V503.07h10.64v-6.9Zm-2.93,20.17v-9.56h-7.79v9.56Zm10.75,0v-9.56H713.6v9.56Z" transform="translate(-264.82 -115.05)" style="fill:#2b3990"/><path d="M757.16,509.37a112.7,112.7,0,0,1-3.47,18.37l-2.46-2a104.35,104.35,0,0,0,3.2-17.1Zm5.3,22.44c-2.33,0-3.5-1.56-3.5-4.59V504.67h2.84v21.76c0,1.11.51,1.67,1.53,1.67h5.24c.6,0,1-.4,1.29-1.16s.54-3.5.66-8l2.7,1.2c-.24,5.66-.69,9-1.35,10.12a3,3,0,0,1-2.76,1.52Zm7.55-25-2.4,2.15a82.33,82.33,0,0,0-6.05-10.76l2.34-2A91.63,91.63,0,0,1,770,506.82Zm9.17,17.77-2.61,1.56a158.49,158.49,0,0,0-4.76-17.38l2.75-1.24A176.2,176.2,0,0,1,779.18,524.59Z" transform="translate(-264.82 -115.05)" style="fill:#2b3990"/><path d="M346.47,556.46l-.33.36a15.74,15.74,0,0,0-2.44-2.29l.34-.33A17.38,17.38,0,0,1,346.47,556.46Zm.45-3.5-.32.35A18.67,18.67,0,0,0,344,551l.32-.33A17.45,17.45,0,0,1,346.92,553Zm-.11,5.47a48.33,48.33,0,0,1-2.36,5.28l-.41-.21a44.09,44.09,0,0,0,2.36-5.25Zm.77-.25v-.49h3.78v-1.9h.47v1.9h3.81v.49h-3a10.07,10.07,0,0,0,3.43,4.29l-.3.42a11,11,0,0,1-3.52-4.71h-.45v5.65h-.47v-5.65H351A10.06,10.06,0,0,1,347,563l-.23-.43a9.49,9.49,0,0,0,3.77-4.41Zm3.44-5.1a8.08,8.08,0,0,1-2.91,3.26l-.36-.31a7.69,7.69,0,0,0,2.85-3.11Zm4.26.57h-.44v-2h-6.47v2.11h-.45v-2.58h7.36Zm-.16,2.3-.39.29A22.25,22.25,0,0,0,352,553.1l.36-.24A25.35,25.35,0,0,1,355.12,556Z" transform="translate(-264.82 -115.05)" style="fill:#2b3990"/><path d="M374.67,554.5v-4.06h.48v4.06H377V555h-1.84v5.64q1.11-.43,2.16-.93v.51a24.78,24.78,0,0,1-4.6,1.67l-.11-.49c.7-.18,1.4-.38,2.07-.6V555h-2v-.51Zm4.31-3.84v5.88c0,3.39-.77,5.87-2.24,7.42l-.36-.33c1.4-1.47,2.1-3.84,2.13-7.09v-5.88Zm2.69.71v11.55h-.46V551.37Zm2.76-.75v13.27H384V550.62Z" transform="translate(-264.82 -115.05)" style="fill:#2b3990"/><path d="M402.24,553.68l-.42-.28a9,9,0,0,0,2.11-3.25l.46.11a9.62,9.62,0,0,1-.57,1.25h4.1V552h-2.83a10.16,10.16,0,0,1,1.1,1.63l-.43.16a12,12,0,0,0-1.21-1.79h-1A9.15,9.15,0,0,1,402.24,553.68ZM403,555v-.49h9.68v2.9h-4.5v1.88h5a10.6,10.6,0,0,1-.27,3.11,1.18,1.18,0,0,1-1.23.75l-1.7,0-.11-.49c.62,0,1.2,0,1.74,0a.9.9,0,0,0,.93-.64,10,10,0,0,0,.15-2.27h-4.47v4.2h-.47v-4.2h-.36c-.85,1.49-2.58,2.76-5.2,3.84l-.27-.48c2.52-1,4.16-2.08,4.95-3.36h-4l.58-2.84h4.3V555Zm.8,2.41-.41,1.88h4.32v-1.88Zm4.31-3.66-.42-.29a9.35,9.35,0,0,0,1.87-3.26l.46.11c-.15.43-.32.85-.5,1.24H414V552H411a11.2,11.2,0,0,1,1.07,1.69l-.45.17a11.05,11.05,0,0,0-1.16-1.86h-1.16A10.63,10.63,0,0,1,408.14,553.7Zm4.08,3.18V555h-4v1.93Z" transform="translate(-264.82 -115.05)" style="fill:#2b3990"/><path d="M443.1,556.73v.51H430.79v-.51Z" transform="translate(-264.82 -115.05)" style="fill:#2b3990"/><path d="M467,558.27a8.39,8.39,0,0,1,.43,2.5,5,5,0,0,1-.41,2.39c-.28.47-1,.71-2.08.71h-.51l-.16-.43h.6c.89,0,1.45-.18,1.69-.48a4.11,4.11,0,0,0,.4-2.19,8.18,8.18,0,0,0-.12-1.27,17.46,17.46,0,0,1-6.43,3.48l-.24-.45a16.42,16.42,0,0,0,6.56-3.56,6.87,6.87,0,0,0-.59-1.51,14.88,14.88,0,0,1-5.56,2.9l-.24-.45a14.56,14.56,0,0,0,5.58-2.84,7.62,7.62,0,0,0-.81-1.1l-.59.31a22.77,22.77,0,0,1-3.69,1.38l-.27-.42a19.52,19.52,0,0,0,3.63-1.27,16.13,16.13,0,0,0,2.07-1.21h-4.46v-.5h8.4v.5H467c-.5.37-1,.7-1.45,1a6.58,6.58,0,0,1,1.38,2.11,12.41,12.41,0,0,0,4-2l.33.34a13,13,0,0,1-2.48,1.44,9.88,9.88,0,0,0,3.32,5l-.32.4a10.74,10.74,0,0,1-3.39-5.2A12.91,12.91,0,0,1,467,558.27Zm-.54-6.43h5.22v2.32h-.45v-1.82H460.79v1.82h-.47v-2.32H466a12,12,0,0,0-.54-1.51l.47-.1A13.18,13.18,0,0,1,466.49,551.84Z" transform="translate(-264.82 -115.05)" style="fill:#2b3990"/><path d="M493,555.12c.21-.78.41-1.59.59-2.4h-3.7v-.49h3.79c.14-.66.28-1.3.39-2l.47.05c-.14.69-.26,1.31-.37,1.91h6.26v.49h-6.36c-.19.87-.37,1.66-.57,2.4h7.74v.5h-7.88c-.25.9-.51,1.74-.79,2.49h6.92v.44a12.89,12.89,0,0,1-3.43,3.78c1,.42,1.9.87,2.77,1.35l-.26.43A34.19,34.19,0,0,0,492,561.3l.26-.4a33.55,33.55,0,0,1,3.34,1.23A14,14,0,0,0,499,558.6h-7.05c.34-1,.65-1.94.95-3H489v-.5Z" transform="translate(-264.82 -115.05)" style="fill:#2b3990"/><path d="M522.89,550.54v12.08h2.53V550.54h.45v12.08h4.36v.51H518.1v-.51h4.34V550.54ZM521,560.23l-.44.12a58.61,58.61,0,0,0-2-7.09l.41-.15A58.72,58.72,0,0,1,521,560.23Zm8.77-7a35,35,0,0,1-2.21,7l-.43-.18a34,34,0,0,0,2.21-6.92Z" transform="translate(-264.82 -115.05)" style="fill:#2b3990"/><path d="M558.05,563.65h-.49v-1.12h-8.63v1.12h-.48V552.29h9.6Zm-.49-1.61v-9.26h-8.63V562Z" transform="translate(-264.82 -115.05)" style="fill:#2b3990"/><path d="M582.5,555.74a14.78,14.78,0,0,0,5.9,3l-.27.43a15.43,15.43,0,0,1-5.82-2.91,16.75,16.75,0,0,1-5.87,2.85l-.25-.43a16,16,0,0,0,5.94-2.89Zm-5.75-4.27V551h5v.46h-2.3v1.6h2.1v.45h-2.1v1.61h2.4v.48h-5.25v-.48H579v-1.61h-2.1v-.45H579v-1.6Zm9.72,8.52v.42a8.25,8.25,0,0,1-5.54,3.48l-.22-.45a8,8,0,0,0,5.22-3h-8V560Zm-3.23-.81-.27.35a10.35,10.35,0,0,0-1.79-1.48l.32-.32A8.88,8.88,0,0,1,583.24,559.18Zm-.4-7.71V551h5v.46h-2.3v1.6h2.12v.45h-2.12v1.61H588v.48h-5.25v-.48h2.4v-1.61H583v-.45h2.09v-1.6Z" transform="translate(-264.82 -115.05)" style="fill:#2b3990"/><path d="M611.28,552a9.82,9.82,0,0,0-.76-1.63l.49-.09a12,12,0,0,1,.74,1.72h5v.51h-2.36a12.19,12.19,0,0,1-1,2.91h4v.48h-12.1v-.48h3.86a23.51,23.51,0,0,0-1-2.91H606V552Zm4.15,11.93H615V563h-7.12v.85h-.46v-6.41h8ZM615,560V558h-7.12V560Zm0,2.53v-2h-7.12v2Zm-5.31-7.18H613a10.46,10.46,0,0,0,1-2.91h-5.25A27.82,27.82,0,0,1,609.67,555.38Z" transform="translate(-264.82 -115.05)" style="fill:#2b3990"/><path d="M637.51,558.58a20.45,20.45,0,0,1-2.67,4.62l-.4-.3a18.86,18.86,0,0,0,2.66-4.54Zm-1.36-7c.13,0,.25,0,.39,0a26.59,26.59,0,0,0,8.27-1.11l.24.45a29.4,29.4,0,0,1-8.51,1.09c-.23,1.65-.48,3.08-.76,4.32h4.56v-3.21h.47v3.21h5.26v.51h-5.26v5.78c0,.75-.36,1.14-1.07,1.14h-1.83l-.09-.49,1.75,0a.7.7,0,0,0,.77-.81v-5.65h-5.1C635.67,554.91,636,553.14,636.15,551.62ZM646,563.11l-.41.24a35.44,35.44,0,0,0-2.58-4.86l.43-.22A37.36,37.36,0,0,1,646,563.11Z" transform="translate(-264.82 -115.05)" style="fill:#2b3990"/><path d="M665.16,554.5v-4.12h.47v4.12h1.72V555h-1.72v5.61a19.9,19.9,0,0,0,2.09-1v.49a22.59,22.59,0,0,1-4.43,1.75l-.11-.49c.66-.18,1.33-.38,2-.61V555h-1.84v-.51Zm4.92,1.66a12.81,12.81,0,0,0-1.18-2.57l.44-.18a14.9,14.9,0,0,1,1.19,2.75h2.2a20.3,20.3,0,0,0,1.15-2.93l.46.18a17.53,17.53,0,0,1-1.15,2.75h2.31v.51h-8v-.51Zm1.28-4.17a14.75,14.75,0,0,0-.55-1.63l.5-.09c.18.51.34,1.08.51,1.72h3.39v.51h-7.28V552Zm3.2,11.84h-.45v-1h-5v1h-.47v-5.32h5.87Zm-.45-1.5V559h-5v3.33Z" transform="translate(-264.82 -115.05)" style="fill:#2b3990"/><path d="M695.05,555.09v7a21.9,21.9,0,0,0,1.58-1.66l.12.55a16.34,16.34,0,0,1-2.19,2.14l-.19-.45a.77.77,0,0,0,.22-.47v-6.6h-2.2v-.5Zm1.13-2.11-.31.36a19.31,19.31,0,0,0-2.53-2.47l.34-.34A17.67,17.67,0,0,1,696.18,553Zm2.29-2.32v6.52q0,4.64-2,6.78l-.36-.33c1.21-1.34,1.82-3.49,1.85-6.45v-6.52Zm2.78.71v11.55h-.47V551.37Zm2.91-.75v13.3h-.47v-13.3Z" transform="translate(-264.82 -115.05)" style="fill:#2b3990"/><path d="M723.89,553.46v-3.11h.47v3.11h1.91V554h-1.91v1c.66.77,1.35,1.69,2.06,2.7l-.26.45a29.88,29.88,0,0,0-1.8-2.63v8.38h-.47v-8.6a16,16,0,0,1-2.29,4.85l-.21-.51a15.06,15.06,0,0,0,2.5-5.6h-2.26v-.49Zm3.31,6.83a19.88,19.88,0,0,0,.27-3.53v-5.62h4v11.3c0,.39.17.6.51.6h.52a1.42,1.42,0,0,0,.56-.11.87.87,0,0,0,.34-.63,23.91,23.91,0,0,0,.08-2.45l.46.15c0,1-.05,1.75-.1,2.29a1.54,1.54,0,0,1-.43,1.05,1.79,1.79,0,0,1-.91.17H732c-.68,0-1-.35-1-1.07V551.65h-3.07v5.11a17.18,17.18,0,0,1-.36,3.92,9.57,9.57,0,0,1-1.34,3.19l-.37-.37A9.84,9.84,0,0,0,727.2,560.29Z" transform="translate(-264.82 -115.05)" style="fill:#2b3990"/><path d="M753.35,563.83h-.46v-8.7a17,17,0,0,1-2.29,5l-.2-.52a15.7,15.7,0,0,0,2.46-5.68h-2.17v-.49h2.2v-3.11h.46v3.11h1.89V554h-1.89v1.21a33.63,33.63,0,0,1,2.12,2.72l-.27.42c-.72-1.08-1.34-1.93-1.85-2.56Zm4.46-13.48a20.92,20.92,0,0,1-.49,2.34h5q0,7.54-.24,9.24c-.16,1.2-.74,1.81-1.75,1.81l-1.48,0-.11-.46,1.51,0a1.3,1.3,0,0,0,1.35-1.27,84.1,84.1,0,0,0,.25-8.82h-4.64a14.25,14.25,0,0,1-1.45,3.2l-.29-.42a15.22,15.22,0,0,0,1.91-5.68ZM756,560.11c.4-.24,1.11-1.9,2.11-5l.43.17a27.91,27.91,0,0,1-1.79,4.6c1.11-.24,2.09-.47,3-.7-.25-.74-.49-1.39-.74-2l.42-.15a33.35,33.35,0,0,1,1.27,3.81l-.41.21c-.14-.52-.28-1-.42-1.47-1.09.3-2.34.6-3.75.89Z" transform="translate(-264.82 -115.05)" style="fill:#2b3990"/></svg>